<svg x="0" y="0" width="264" height="239" viewBox="0 0 264 239" version="1.1" xmlns="http://www.w3.org/2000/svg" style="display: block;margin-left: auto;margin-right: auto;">
<defs>
<clipPath id="c_1"><path d="M0,0H264V239H0Z"/></clipPath>
<style>

.g0{fill:#006536;}

</style>

</defs>
<path d="M0 0V239H264V0Z" fill="#FFFFFF" stroke="none"/>
<g clip-path="url(#c_1)">
<path d="M131 203.2c-46.7-.2-84.4-38-84.2-85c.2-46.5 37.8-84 84.6-84.1c46.9 .2 84.6 37.9 84.5 84.7c-.1 46.8-37.9 84.5-84.9 84.4m85.5-76.9c1.7-1.2 3.3-2.3 5-3.5c-1.6-1.3-3.1-2.6-4.7-3.9c1.6-1.4 3.1-2.6 4.6-3.9c-.2-.3-.4-.4-.6-.6c-1.2-.8-2.4-1.7-3.6-2.5q-.7-.5-.1-1.1c1-1 2.1-2.1 3.1-3.1c.2-.2 .5-.3 .5-.7c-1.7-1-3.4-2-5.1-3c1.3-1.6 2.6-3.1 3.9-4.7c-1.8-.9-3.7-1.7-5.5-2.6c1.2-1.7 2.3-3.3 3.4-4.9c-.2-.3-.5-.3-.8-.4c-1.4-.6-2.9-1.1-4.3-1.6q-.5-.2-.2-.7c.7-1.4 1.5-2.7 2.3-4.1c.1-.2 .3-.4 .3-.7c-.2-.1-.3-.1-.5-.2c-1.6-.4-3.1-.8-4.7-1.3q-.6-.1-.3-.7c.4-.9 .8-1.8 1.3-2.8c.3-.7 .6-1.4 1-2.2c-.4 0-.7-.1-1-.2c-1.5-.2-3-.5-4.5-.8q-.5-.1-.3-.6c.5-1.3 1-2.7 1.4-4.1c.2-.3 .3-.6 .4-1.1c-2-.2-4-.4-6-.6c.5-2 1-3.9 1.5-5.9h-6.1c.4-2 .7-3.9 1.1-5.9c-.3-.1-.4-.1-.6-.1c-1.6 .2-3.1 .3-4.6 .4q-.9 .1-.8-.7c.1-1.6 .2-3.1 .4-4.6q0-.7-.6-.6c-.7 .1-1.4 .3-2.1 .4c-1.1 .2-2.1 .3-3.3 .5V47.3c-.2-.1-.4-.1-.6 0c-1.5 .4-3.1 .8-4.6 1.2q-.7 .2-.8-.5c-.1-1.6-.2-3.1-.4-4.6c0-.3 0-.5-.2-.8c-1.8 .7-3.7 1.3-5.6 2c-.3-2-.7-3.9-1-5.9c-.4 .1-.7 .2-1 .4c-1.4 .6-2.7 1.2-4 1.8q-.6 .3-.8-.3c-.3-1.5-.7-2.9-1.1-4.3c-.1-.3-.1-.7-.4-.9c-1.7 .9-3.4 1.9-5.2 2.9c-.7-1.9-1.4-3.8-2.1-5.7c-1.7 1.2-3.3 2.3-5 3.4c-.2-.3-.3-.5-.4-.8c-.7-1.4-1.3-2.8-2-4.2c-.2-.4-.2-.5-.6-.1c-1.2 .9-2.3 1.9-3.4 2.8c-.3 .2-.6 .5-1 .7c-1-1.7-2-3.5-3-5.2c-.2 .1-.3 .2-.4 .3c-1.1 1.2-2.3 2.4-3.5 3.5q-.4 .4-.8-.1c-.8-1.2-1.6-2.3-2.5-3.5c-.2-.3-.3-.6-.7-.9c-1.3 1.6-2.5 3.1-3.9 4.6c-1.3-1.5-2.6-3-3.9-4.6c-1.2 1.7-2.4 3.3-3.5 5c-1.5-1.5-2.9-2.9-4.4-4.4c-1 1.8-2 3.5-3 5.3c-1.6-1.3-3.1-2.6-4.7-3.9c-.9 1.9-1.7 3.6-2.6 5.5c-1.7-1.2-3.3-2.3-5-3.5c-.7 1.9-1.4 3.7-2.1 5.6c-1.7-1-3.3-1.9-4.9-2.9c-.6 1.9-1.1 3.7-1.6 5.6c-1.9-.9-3.6-1.7-5.5-2.5c-.3 2-.7 4-1.1 6c-1.1-.5-2.2-.9-3.3-1.2c-.5-.2-1-.4-1.5-.6q-.9-.4-1 .6c-.1 1.5-.3 3.1-.5 4.6c0 .5-.2 .5-.5 .4c-.9-.2-1.7-.5-2.5-.7c-1-.2-1.9-.5-2.8-.7c-.1 .2-.1 .3-.1 .5c0 1.7 0 3.3 0 5c0 .5-.1 .5-.6 .5c-1.5-.3-3.1-.6-4.6-.9q-.9-.1-.8 .7c.1 1.5 .2 3 .3 4.5q.1 .7-.6 .7c-1.5-.1-3-.3-4.5-.4q-.9-.1-.7 .8c0 0 0 .1 0 .2c.2 1.4 .5 2.9 .7 4.3q.1 .6-.5 .6c-1.3 0-2.5 0-3.7 0c-.6 0-1.2 0-1.8 0c.5 2 1 3.9 1.5 5.9c-2 .2-4 .3-5.9 .5c-.1 .4 .1 .7 .2 .9c.5 1.5 1 2.9 1.5 4.4c.2 .5 .1 .5-.4 .6c-1.5 .3-3.1 .5-4.7 .8c-.2 0-.5 0-.7 .2c.8 1.8 1.6 3.6 2.5 5.5c-2 .5-3.9 1-5.8 1.5c0 .3 .1 .4 .2 .5c.8 1.5 1.6 2.9 2.4 4.3c.3 .5 .3 .6-.3 .8c-1.4 .5-2.9 1-4.3 1.5c-.2 .1-.5 .1-.8 .4c1.1 1.7 2.2 3.3 3.4 5c-1.9 .8-3.7 1.7-5.5 2.5c.2 .3 .3 .5 .5 .7c1 1.2 2 2.4 3 3.6q.3 .4-.2 .7c-.4 .3-.8 .5-1.2 .8c-1.2 .6-2.3 1.3-3.5 1.9c0 .3 .2 .4 .4 .5c.6 .7 1.3 1.3 1.9 2c.5 .5 1 1 1.5 1.5q.4 .4-.1 .8c-.6 .4-1.2 .8-1.7 1.2c-.9 .6-1.8 1.2-2.7 1.9c.1 .3 .4 .4 .6 .6c1.1 1 2.3 2 3.4 3q.5 .4 0 .8c-1.1 1-2.3 2-3.5 2.9c-.2 .2-.4 .3-.5 .7c1.5 1.1 3.2 2.3 4.8 3.5c-1.4 1.4-2.8 2.8-4.2 4.2c0 .2 .2 .2 .3 .3c1.4 .8 2.9 1.7 4.3 2.5q.5 .4 .1 .9c-1 1.1-2 2.3-2.9 3.5c-.2 .2-.5 .3-.5 .7c.2 0 .3 .1 .5 .2c1.4 .7 2.7 1.3 4 2c1 .4 1 .3 .4 1.1c-.9 1.2-1.8 2.5-2.6 3.7c-.1 .1-.3 .3-.3 .6c1.9 .7 3.7 1.4 5.6 2.1c-1 1.8-2 3.5-3 5.3c.3 .1 .6 .2 .8 .2c1.5 .4 2.9 .8 4.3 1.2q.7 .2 .4 .9c-.6 1.3-1.2 2.7-1.9 4.1c-.1 .2-.3 .4-.3 .8c2 .3 3.9 .7 5.8 1.1c.1 .2 0 .3 0 .4c-.6 1.5-1.1 3.1-1.7 4.6c-.3 .7-.2 .7 .5 .8c.1 0 .3 0 .4 0c1.4 .1 2.8 .2 4.2 .4q.7 .1 .5 .8c-.3 1-.6 2-.8 3.1c-.2 .6-.4 1.3-.5 2.1h5.9c.1 .3 .1 .6 0 .8c-.3 1.5-.6 3.1-.8 4.6q-.1 .6 .5 .6c1.6-.1 3.2-.3 4.8-.4c.6-.1 .7-.1 .6 .6c-.1 1.4-.3 2.8-.4 4.1c0 .4-.1 .9 0 1.3c.2 0 .3 0 .4-.1c1.6-.2 3.3-.5 4.9-.8q.6-.1 .6 .6c0 1.6 0 3.1 0 4.7c0 .2 0 .4 .1 .7c2-.5 3.9-1 5.8-1.5c.2 2.1 .4 4 .6 6.1c1.9-.7 3.8-1.3 5.7-2c.3 2 .7 3.9 1 5.8c.4 .1 .6-.1 .8-.2c1.4-.6 2.8-1.3 4.2-1.9q.6-.2 .8 .4c.4 1.5 .8 3.1 1.2 4.7c.1 .2 .1 .4 .3 .5c1.7-1 3.4-2 5.2-3c.7 2 1.4 3.8 2.1 5.8c1.7-1.2 3.3-2.3 5-3.5c.9 1.9 1.7 3.7 2.6 5.5c1.6-1.3 3.1-2.5 4.7-3.8c1 1.7 2 3.5 3.1 5.3c1.4-1.5 2.8-2.9 4.2-4.4c1.3 1.7 2.4 3.4 3.6 5.1c1.3-1.6 2.6-3.1 3.9-4.7c1.4 1.6 2.6 3.1 3.9 4.7c1.3-1.7 2.4-3.3 3.6-5c1.5 1.5 2.9 2.9 4.3 4.4c1.1-1.8 2.1-3.5 3.1-5.3c.2 .2 .3 .2 .5 .4c1.2 1 2.4 2.1 3.7 3.1q.5 .4 .8-.2c.6-1.3 1.3-2.7 1.9-4.1c.2-.2 .2-.5 .5-.7c1.6 1.1 3.2 2.2 4.8 3.4c.3-.3 .4-.6 .5-.9c.5-1.4 1-2.7 1.5-4.1q.2-.7 .9-.3c1.3 .7 2.6 1.5 4 2.3c.2 .1 .3 .3 .7 .2c.5-1.9 1-3.8 1.6-5.7c1.8 .8 3.6 1.7 5.5 2.5c0-.3 .1-.5 .1-.7c.3-1.5 .6-3 .9-4.5c.1-.7 .1-.8 .8-.5c1.5 .5 2.9 1.1 4.3 1.6c.2 .1 .5 .2 .7 .1c0-.1 .1-.3 .1-.4c.1-1.7 .3-3.3 .4-5q.1-.5 .7-.4c.6 .2 1.2 .3 1.8 .5c1.1 .3 2.3 .6 3.4 .9c.2-.4 .1-.7 .1-1c0-1.5 0-3 0-4.5q.1-.6 .6-.5c1.5 .3 3 .5 4.5 .8c.3 .1 .6 .1 .9 .1c0-.3 0-.4 0-.6c-.1-1.5-.2-3-.4-4.5c0-1-.1-.9 .8-.8c1.5 .1 3.1 .2 4.6 .4q.6 0 .5-.6c0-.1 0-.2 0-.3c-.2-1.4-.5-2.8-.7-4.2c-.1-.3-.2-.6 0-.9h3.1c.8 0 1.6 0 2.4 0c.3 0 .4-.1 .3-.4c0-.2-.1-.3-.1-.5c-.4-1.5-.8-2.9-1.2-4.4c-.1-.5 0-.6 .5-.7c.2 0 .3 0 .5 0c1.5-.1 3-.2 4.4-.4c.5 0 .6-.1 .4-.5c-.4-1.1-.8-2.2-1.2-3.3c-.2-.7-.5-1.3-.6-2c2-.3 3.9-.7 5.9-1c0-.4-.2-.6-.3-.9c-.7-1.4-1.3-2.8-1.9-4.2q-.3-.5 .3-.6c1.2-.4 2.4-.7 3.6-1c.5-.2 1.1-.2 1.7-.5c-1-1.8-2-3.5-3-5.3c2-.7 3.8-1.4 5.7-2.1c-1.1-1.7-2.3-3.3-3.4-5c1.8-.9 3.6-1.7 5.5-2.6c-1.3-1.6-2.6-3.1-3.9-4.7c1.8-1 3.5-2 5.3-3c-1.5-1.5-2.9-2.9-4.3-4.4Z" class="g0"/>
<path d="M131.3 197.4c-43.6 0-78.7-35.3-78.7-78.8c0-43.5 35.2-78.7 78.7-78.7c43.8-.1 79 35.7 78.8 79.2c-.3 42.7-34.8 78.3-78.8 78.3m1.1-161.3C86 35.5 48.9 73 48.8 118.4c-.1 45.9 37.2 82.9 82.6 82.7c44.8 .2 82.2-36.1 82.5-81.9c.3-45.8-36.4-82.6-81.5-83.1Z" class="g0"/>
<path d="M55.9 120.2c.4 0 .4-.2 .4-.5c0-.2 0-.5 0-.7c0-.3 0-.6 0-.8c0-.3-.1-.5-.4-.5c-.3 0-.5 .1-.5 .4c0 .6 0 1.1 0 1.7c0 .3 .2 .4 .5 .4Z" class="g0"/>
<path d="M206.6 114.2c-.3 0-.4 .1-.4 .4c.1 .5 .1 1.1 .1 1.6c0 .4 .2 .4 .5 .4c.4 0 .4-.2 .4-.5c0-.2 0-.4 0-.5c0-.4-.1-.7-.1-1.1c0-.3-.2-.4-.5-.3Z" class="g0"/>
<path d="M98.6 186.1c-.5-.2-1-.5-1.5-.7c-.3-.2-.5 0-.6 .2c-.2 .3-.1 .4 .2 .6c.5 .2 .9 .5 1.4 .7c.4 .2 .7-.1 .7-.5c0-.2-.1-.2-.2-.3Z" class="g0"/>
<path d="M77.4 66.5c.2-.2 .5-.6 .8-.8c.3-.3 .4-.5 0-.8c-.1 0-.1-.1-.2-.2c-.7 .5-1.2 1.1-1.7 1.7q.6 .6 1.1 .1Z" class="g0"/>
<path d="M63.7 151c-.1-.1-.2-.2-.3-.2c-.4 0-.6 .3-.5 .7c.2 .5 .5 1 .8 1.6c.1 .2 .3 .1 .5 0c.2-.1 .4-.2 .3-.5c-.3-.5-.6-1-.8-1.6Z" class="g0"/>
<path d="M55.9 115.3c.3 0 .5-.1 .5-.5c0-.2 0-.5 .1-.8v-.9c0-.3-.3-.2-.5-.3c-.2 0-.3 .1-.4 .3c0 .6 0 1.1-.1 1.7c0 .3 .1 .5 .4 .5Z" class="g0"/>
<path d="M133.1 43.6c.5 0 1.1 .1 1.7 .1c.2 0 .3-.1 .4-.3c0-.4-.1-.6-.5-.6c-.2 0-.5 0-.8 0c-.3 0-.5 0-.8 0c-.3-.1-.4 .1-.4 .3c0 .3 0 .5 .4 .5Z" class="g0"/>
<path d="M103.1 188.1c-.6-.2-1.1-.4-1.7-.7c-.3-.1-.4 .1-.5 .3c-.1 .2-.2 .4 .1 .5c.6 .2 1.1 .5 1.6 .7c.4 .1 .7-.1 .7-.5c0-.1-.1-.2-.2-.3Z" class="g0"/>
<path d="M109.9 46.7c.6-.2 1.2-.3 1.8-.5c.2 0 .3-.1 .2-.3c0-.4-.1-.6-.6-.5c-.5 .1-1 .3-1.6 .5c-.3 .1-.3 .3-.2 .5c.1 .2 .1 .4 .4 .3Z" class="g0"/>
<path d="M77.6 171c-.2-.3-.4-.2-.7 0c-.2 .2-.1 .4 .1 .6c.4 .5 .9 .9 1.3 1.4c.2-.1 .3-.1 .3-.2q.4-.4 0-.8c-.3-.3-.7-.7-1-1Z" class="g0"/>
<path d="M56.5 124.6c0-.2 0-.4 0-.5c0-.5 0-.8-.1-1.1c0-.3-.1-.4-.4-.4c-.3 0-.5 .1-.5 .4c.1 .6 .1 1.1 .2 1.7c0 .2 0 .4 .4 .4c.3 0 .5-.1 .4-.5Z" class="g0"/>
<path d="M63.1 87c.2 0 .3-.1 .3-.2c.3-.5 .5-1.1 .8-1.6c.1-.3 0-.4-.3-.5c-.2-.2-.4-.2-.6 .2c-.2 .5-.4 .9-.7 1.4c-.1 .4 .1 .7 .5 .7Z" class="g0"/>
<path d="M185.9 65.9c-.2-.3-.4-.2-.5 0c-.1 .1-.2 .2-.4 .3c.5 .5 .9 1 1.4 1.5c.2 .3 .4 .2 .6 0c.3-.2 .3-.4 .1-.6c-.4-.4-.8-.8-1.2-1.2Z" class="g0"/>
<path d="M73.3 70.4c.2 .2 .4 .3 .6 0c.4-.5 .9-1 1.3-1.5c-.2-.3-.4-.5-.7-.6c-.4 .5-.8 1-1.3 1.5c-.2 .2-.2 .4 .1 .6Z" class="g0"/>
<path d="M206.6 123.9c-.4 0-.5 .2-.5 .5c0 .5-.1 1.1-.1 1.6c-.1 .4 .2 .4 .4 .4c.3 0 .4-.1 .5-.3c0-.5 0-1 .1-1.6c0 .1 0 0 0 0c.1-.4-.1-.5-.4-.6Z" class="g0"/>
<path d="M184.4 171.7c-.1 .1-.2 .1-.3 .2c-.4 .4-.8 .8-1.2 1.2c-.2 .2-.2 .3 0 .5c.2 .2 .4 .4 .6 .1c.4-.4 .9-.8 1.3-1.2c.1-.1 .2-.2 .1-.4c-.1-.1-.3-.3-.5-.4Z" class="g0"/>
<path d="M160 187.9c-.6 .2-1.1 .5-1.7 .7c-.3 .2-.1 .4-.1 .6c.1 .2 .2 .4 .4 .2c.6-.2 1.2-.4 1.8-.7c.1 0 .2-.1 .2-.2c0-.4-.3-.7-.6-.6Z" class="g0"/>
<path d="M142.9 44.5c.5 .1 1 .2 1.5 .3c.3 0 .4 0 .5-.3c0-.3 0-.6-.4-.6c-.5-.1-1-.2-1.6-.3c-.3 0-.4 .1-.4 .4c-.1 .3 0 .5 .4 .5Z" class="g0"/>
<path d="M60 141.9c0-.1-.1-.2-.3-.1c-.4 0-.6 .2-.4 .6c.1 .6 .3 1.1 .5 1.6c.1 .3 .3 .2 .5 .1c.2 0 .4-.1 .3-.4c-.2-.6-.4-1.2-.6-1.8Z" class="g0"/>
<path d="M169 183.5c-.6 .3-1.2 .7-1.8 1c-.3 .2-.2 .4-.1 .6c.1 .2 .3 .3 .5 .2c.5-.3 1-.6 1.5-.9c.3-.1 .4-.3 .2-.5c-.1-.1-.2-.3-.3-.4Z" class="g0"/>
<path d="M167.3 52.8c.3 .2 .7-.1 .7-.3c0-.4-.2-.4-.3-.5c-.4-.2-.9-.5-1.4-.8c-.3-.1-.5 0-.6 .3c-.2 .2-.1 .4 .1 .5c.5 .3 1 .5 1.5 .8Z" class="g0"/>
<path d="M180.6 175.2c-.5 .4-.9 .7-1.3 1.1c-.3 .2-.2 .4 0 .5c.1 .2 .3 .4 .6 .2c.4-.4 .9-.8 1.3-1.2c.1-.1 .2-.1 .2-.3c-.1-.3-.6-.5-.8-.3Z" class="g0"/>
<path d="M189.8 71.7c.2-.2 .3-.2 .4-.3c.1-.1 .2-.1 .4-.2c-.6-.7-1.1-1.3-1.6-1.9c-.2 .1-.4 .2-.5 .3c-.1 .1-.2 .3 0 .4c.4 .6 .9 1.1 1.3 1.7Z" class="g0"/>
<path d="M192.7 75.5c.2 0 .3 0 .3-.1q.5-.3 .2-.7c-.3-.5-.7-.9-1-1.3c-.2-.4-.4-.2-.6 0c-.2 .1-.2 .3-.1 .5c.4 .5 .8 1.1 1.2 1.6Z" class="g0"/>
<path d="M158.4 48.7c.3 .1 .5 .1 .6-.2c.2-.4 .1-.5-.3-.6c-.5-.2-1-.4-1.5-.6c0 0-.1-.1-.2-.1c-.3 .1-.3 .3-.3 .5c-.1 .2-.1 .3 .1 .4c.5 .2 1.1 .4 1.6 .6Z" class="g0"/>
<path d="M88.3 57.2c.5-.4 1-.7 1.5-1.1q-.4-.8-1-.3c-.4 .3-.9 .6-1.4 .9c.1 .2 .1 .3 .2 .4c.2 .4 .4 .3 .7 .1Z" class="g0"/>
<path d="M152.2 46.6c.6 .2 1.2 .4 1.7 .5c.4 .1 .4-.1 .5-.4c.1-.3 0-.4-.2-.5c-.6-.1-1.1-.3-1.6-.4c-.4-.1-.6 0-.6 .5c-.1 .2 .1 .3 .2 .3Z" class="g0"/>
<path d="M100.8 50.1c.6-.2 1.2-.5 1.8-.8c.2-.1 .1-.2 .1-.4c-.1-.1-.1-.4-.4-.4c-.7 .3-1.4 .5-2 .9c-.1 .1 0 .4 .1 .5c.1 .2 .2 .3 .4 .2Z" class="g0"/>
<path d="M161.4 49.9c.6 .2 1.1 .5 1.6 .7q.1 .1 .2 .1c.3-.1 .3-.3 .4-.5c.1-.2 0-.3-.2-.4c-.5-.2-1.1-.4-1.6-.7c-.3-.2-.4 0-.6 .3c-.1 .2-.1 .4 .2 .5Z" class="g0"/>
<path d="M175.5 58c.2 .1 .3 .2 .5 0c.1-.1 .2-.2 .3-.4c0-.1-.1-.1-.1-.2c-.6-.4-1.1-.8-1.7-1.2c-.3-.1-.3 .2-.5 .4c-.1 .1-.1 .3 .1 .4c.5 .3 .9 .7 1.4 1Z" class="g0"/>
<path d="M84.1 60.4c.5-.4 1-.9 1.6-1.3c.2-.1 .2-.3 0-.5c-.1-.2-.3-.4-.6-.2c-.4 .4-.9 .8-1.4 1.2c-.2 .1-.2 .2-.1 .4c.2 .1 .2 .3 .5 .4Z" class="g0"/>
<path d="M179.4 61c.2 .2 .7 0 .7-.4c0 0 0-.1-.1-.2c-.4-.4-1-.8-1.5-1.2c-.2-.2-.3 0-.5 .2c-.1 .1-.3 .3 0 .5c.5 .4 .9 .8 1.4 1.1Z" class="g0"/>
<path d="M70.3 74.3c.2 .2 .4 .2 .6-.1c.3-.4 .6-.9 1-1.3c0-.1 .1-.2 .1-.3c-.1-.3-.3-.3-.5-.5c-.1-.1-.2 .1-.3 .2c-.3 .4-.7 .9-1.1 1.4c-.2 .3 0 .4 .2 .6Z" class="g0"/>
<path d="M67.5 78.3c.3 .2 .4 .2 .6-.1c.3-.5 .6-.9 1-1.4c0-.1 0-.2 .1-.2c-.1-.3-.3-.3-.5-.5c-.2-.1-.3 .1-.4 .2c-.3 .5-.6 1-.9 1.4c-.2 .3-.1 .5 .1 .6Z" class="g0"/>
<path d="M65.6 82.4c.3-.5 .6-1 .9-1.5q0-.1 .1-.2c-.1-.2-.3-.3-.5-.4c-.2-.1-.3 0-.4 .2c-.3 .5-.5 1-.8 1.4c-.2 .3-.1 .5 .1 .6c.3 .2 .5 .2 .6-.1Z" class="g0"/>
<path d="M201.7 92.5c0 .2 .2 .3 .3 .2c.2-.1 .5-.1 .5-.5c-.2-.5-.5-1.2-.8-1.8c-.1-.3-.4 0-.6 0c-.1 .1-.2 .2-.1 .4c.2 .6 .4 1.2 .7 1.7Z" class="g0"/>
<path d="M58 100.8c.2 0 .5 0 .6-.3c.1-.6 .2-1.1 .4-1.7c.1-.3-.1-.4-.3-.4c-.3-.1-.5-.1-.6 .2c-.1 .6-.3 1.1-.4 1.7c-.1 .3 0 .4 .3 .5Z" class="g0"/>
<path d="M204.4 101.8c.1 .4 .4 .3 .6 .2c.1 0 .4 0 .3-.3c-.1-.6-.3-1.2-.4-1.9c-.1-.3-.4-.2-.6-.1c-.2 0-.3 .1-.3 .2c.2 .7 .3 1.3 .4 1.9Z" class="g0"/>
<path d="M57 105.5c.2 .1 .5 .1 .5-.2c.1-.6 .2-1.1 .3-1.7c.2-.3-.1-.4-.3-.5c-.3 0-.5 0-.5 .3c-.1 .6-.2 1.2-.3 1.7c-.1 .3 0 .4 .3 .4Z" class="g0"/>
<path d="M195.2 79.3c.2 .3 .3 .4 .6 .2c.2-.2 .4-.3 .2-.6c-.3-.5-.6-1-.9-1.5c-.1-.1-.2-.2-.4-.2c-.3 0-.6 .4-.4 .7c.3 .5 .6 1 .9 1.4Z" class="g0"/>
<path d="M61.7 146.6c0-.1-.1-.3-.3-.3c-.4 .1-.6 .3-.5 .7c.2 .5 .5 1 .7 1.5c.1 .4 .3 .3 .5 .2c.3-.1 .4-.2 .3-.6c-.3-.4-.4-1-.7-1.5Z" class="g0"/>
<path d="M196.6 156.4c-.3-.2-.4-.1-.6 .2c-.2 .5-.5 .9-.8 1.4c-.2 .3 .1 .7 .5 .7c.1 0 .2-.1 .3-.3c.2-.4 .5-.9 .8-1.3c.2-.4 .1-.5-.2-.7Z" class="g0"/>
<path d="M57.1 129.5c-.1-.6-.2-1.1-.2-1.7c-.1-.2-.2-.4-.5-.3c-.2 0-.4 .1-.4 .4c.1 .6 .1 1.2 .2 1.7c0 .3 .2 .4 .5 .3c.2 0 .5 0 .4-.4Z" class="g0"/>
<path d="M68.5 159.5c-.1-.1-.2-.2-.3-.2c-.2 .1-.4 .2-.5 .4c-.2 .1-.1 .2 0 .3c.3 .5 .7 1 1 1.5c.1 .2 .3 .2 .6 0c.2-.1 .3-.3 .1-.6c-.3-.4-.6-.9-.9-1.4Z" class="g0"/>
<path d="M193.9 160.5c-.1-.1-.3-.1-.4 .1c-.3 .5-.7 1-1.1 1.5c-.1 .3 0 .4 .2 .5c.2 .1 .4 .3 .6 0c.3-.5 .7-1 1.1-1.6c0 0 0-.1 0-.1c0-.2-.2-.3-.4-.4Z" class="g0"/>
<path d="M70.7 163.5c-.2 .1-.4 .3-.2 .5c.4 .5 .7 1 1.1 1.5c.1 .1 .3 .2 .5 0c.1-.1 .2-.2 .4-.3c-.5-.6-.9-1.2-1.3-1.7c-.1-.2-.3-.2-.5 0Z" class="g0"/>
<path d="M84.8 177.5c-.3-.3-.4-.1-.6 .1c-.2 .2-.2 .4 0 .6c.5 .3 .9 .7 1.4 1c.1 .1 .2 .3 .4 .1c.1-.2 .3-.3 .4-.7c-.1 0-.2 0-.3-.1c-.4-.3-.9-.7-1.3-1Z" class="g0"/>
<path d="M206 128.8c-.3-.1-.4 .1-.4 .4c-.1 .5-.1 1-.3 1.5c0 .4 .1 .5 .4 .5c.3 .1 .5 0 .5-.3c.1-.5 .2-1.1 .3-1.6c0-.4-.1-.5-.5-.5Z" class="g0"/>
<path d="M88.6 180.3c-.3-.2-.4 .1-.5 .3c-.2 .2-.2 .3 0 .5c.5 .3 1 .6 1.5 1c.1 0 .3 .1 .4 0c.1-.1 .3-.3 .3-.5c0-.1 0-.2-.1-.2c-.5-.4-1.1-.8-1.6-1.1Z" class="g0"/>
<path d="M173.1 180.9c-.6 .4-1.1 .8-1.7 1.1c-.3 .2-.2 .4-.1 .6c.2 .2 .3 .4 .6 .2c.6-.4 1.1-.8 1.7-1.1c-.1-.4-.2-.6-.5-.8Z" class="g0"/>
<path d="M124.3 43.9c.2 0 .4 0 .6 0c.4 0 .8-.1 1.1-.1c.3 0 .4-.2 .4-.4c-.1-.3-.1-.5-.5-.5c-.5 .1-1.1 .1-1.7 .2c-.2 0-.3 .1-.3 .4c0 .2 .1 .5 .4 .4Z" class="g0"/>
<path d="M187.5 168.4c-.5 .5-.9 .9-1.4 1.4q.6 .7 1.2 .1c.3-.3 .5-.6 .8-.9c.3-.3 .3-.4 0-.6c-.2-.2-.4-.3-.6 0Z" class="g0"/>
<path d="M117 192.2c-.6-.1-1.1-.2-1.7-.3c-.3-.1-.4 .1-.4 .3c-.1 .2-.1 .5 .2 .6c.6 .1 1.1 .2 1.7 .3c.3 .1 .4 0 .5-.3c0-.3 0-.5-.3-.6Z" class="g0"/>
<path d="M80.6 63.4c.5-.5 1-.9 1.5-1.4q-.5-.7-1.1-.2c-.3 .3-.6 .6-1 .9c-.2 .2-.2 .4 0 .6c.2 .1 .3 .3 .6 .1Z" class="g0"/>
<path d="M206 111.1c0 .3 0 .7 .5 .6c.5 0 .4-.4 .4-.6c-.1-.4-.1-.8-.2-1.2q-.1-.7-.9-.5c.1 .6 .1 1.2 .2 1.7Z" class="g0"/>
<path d="M170 54.4c.6 .3 1.2 .7 1.8 1c.1 0 .1-.1 .2-.2c.3-.4 .3-.5-.2-.8c-.4-.2-.8-.5-1.3-.8c-.3-.2-.4 0-.6 .2c-.1 .3-.1 .4 .1 .6Z" class="g0"/>
<path d="M205.3 133.6c-.3 0-.5 0-.5 .3c-.2 .6-.3 1.1-.4 1.7c-.1 .3 .1 .4 .3 .4c.2 .1 .5 .2 .5-.2c.2-.6 .3-1.2 .4-1.8c.1-.3-.1-.3-.3-.4Z" class="g0"/>
<path d="M80.4 174.4c-.1 .2-.2 .4 .1 .6c.4 .3 .8 .7 1.2 1.1c.2 .2 .4 .2 .6 0c.1-.1 .2-.2 .3-.4c-.6-.5-1.1-.9-1.6-1.4c-.2-.2-.4 0-.6 .1Z" class="g0"/>
<path d="M58 134.3c-.2-.6-.3-1.1-.4-1.7c-.1-.4-.4-.3-.6-.2c-.2 0-.3 .1-.3 .3c.2 .6 .3 1.2 .4 1.8c.1 .3 .3 .3 .5 .3c.2-.1 .4-.2 .4-.5Z" class="g0"/>
<path d="M56.3 110.4c.3 0 .5 0 .5-.3c.1-.6 .1-1.1 .2-1.8c.1-.2 0-.3-.4-.3c-.2-.1-.4 0-.5 .3c0 .6-.1 1.1-.2 1.6c0 .3 .1 .5 .4 .5Z" class="g0"/>
<path d="M66 155.4c-.2-.2-.3-.3-.5-.2c-.2 .1-.3 .2-.4 .3c0 .3 .1 .4 .3 .7c.2 .3 .4 .7 .6 1.1c.2 .3 .3 .3 .6 .1c.2-.1 .4-.2 .2-.5c-.3-.5-.6-1-.8-1.5Z" class="g0"/>
<path d="M96.4 52.2c.6-.3 1.2-.5 1.7-.8c.1-.1 .2-.1 .2-.3c0-.4-.4-.6-.7-.4c-.6 .2-1.1 .5-1.6 .7c-.3 .2-.2 .4 0 .6c.1 .2 .1 .4 .4 .2Z" class="g0"/>
<path d="M176.8 178.3c-.5 .4-1.1 .8-1.6 1.2c0 .1 .1 .2 .1 .2q.4 .5 .9 .2c.4-.3 .7-.6 1.1-.9c.3-.2 .3-.4 .1-.6c-.2-.2-.3-.4-.6-.1Z" class="g0"/>
<path d="M92.2 183.2c-.1 .2-.1 .4 .1 .6c.6 .3 1.2 .6 1.8 1c.2-.2 .3-.5 .4-.8c-.5-.3-1.1-.6-1.7-1c-.3-.2-.4-.1-.6 .2Z" class="g0"/>
<path d="M114.7 45.5c.6-.1 1.1-.3 1.7-.4c.3-.1 .3-.2 .3-.5c-.1-.2-.1-.4-.4-.4c-.6 .2-1.2 .3-1.8 .4c-.3 .1-.3 .3-.3 .5c.1 .2 .2 .5 .5 .4Z" class="g0"/>
<path d="M164.5 185.9c-.6 .3-1.2 .6-1.7 .8c-.2 .1-.2 .2-.2 .4c.1 .1 .2 .4 .4 .5c0 0 .1 0 .1-.1c.6-.3 1.3-.5 1.9-.9c.2-.1 0-.4-.1-.5c-.1-.2-.2-.3-.4-.2Z" class="g0"/>
<path d="M119.3 44.6c.7-.1 1.3-.2 1.9-.3c.3 0 .4-.2 .3-.5c0-.3-.2-.4-.4-.4c-.6 .1-1.2 .2-1.7 .3c-.3 0-.4 .1-.3 .4c0 .3 0 .5 .2 .5Z" class="g0"/>
<path d="M202.5 143c-.3 0-.3 .2-.3 .3c-.2 .5-.4 1-.6 1.5c-.2 .4 0 .5 .3 .6c.3 .1 .4 0 .5-.2c.2-.5 .4-1 .6-1.6c.1-.3-.1-.6-.5-.6Z" class="g0"/>
<path d="M203.2 97.1c0 .1 .1 .3 .3 .2c.4 .1 .6-.2 .5-.5c-.1-.6-.3-1.1-.5-1.6c-.1-.3-.3-.3-.6-.2c-.2 0-.3 .2-.2 .4c.1 .6 .3 1.1 .5 1.7Z" class="g0"/>
<path d="M112.4 191.2c-.6-.2-1.3-.3-1.8-.5c-.4 0-.4 .1-.5 .3c0 .2-.1 .4 .2 .5c.6 .2 1.2 .4 1.8 .5c.3 .1 .4-.1 .4-.3c0-.2 .1-.4-.1-.5Z" class="g0"/>
<path d="M150.8 191.1c-.6 .1-1.1 .3-1.7 .4c-.4 .1-.3 .4-.2 .6c0 .2 .1 .3 .4 .3c.6-.2 1.2-.3 1.8-.5c.1 0 .2-.1 .2-.3c0-.3-.2-.6-.5-.5Z" class="g0"/>
<path d="M60.8 91.4c.2 0 .5 .2 .6 0c.3-.6 .5-1.3 .8-1.8c0-.4-.2-.4-.4-.5c-.1-.1-.3-.1-.4 .1c-.3 .6-.5 1.2-.8 1.8c0 .2 .1 .3 .2 .4Z" class="g0"/>
<path d="M105.7 48.1c.5-.1 .9-.3 1.3-.4c.3-.1 .3-.3 .2-.6c-.1-.2-.1-.4-.4-.3c-.7 .3-1.4 .4-2 .8q.2 .8 .9 .5Z" class="g0"/>
<path d="M199.8 88.1c.1 .2 .3 .1 .5 .1c.1-.1 .3-.2 .4-.5c-.3-.6-.6-1.2-.9-1.8c-.2-.3-.4-.1-.5 0c-.2 .1-.4 .2-.3 .4c.3 .6 .6 1.2 .8 1.8Z" class="g0"/>
<path d="M191.2 164.6c-.2-.2-.4-.3-.6 0c-.3 .4-.7 .9-1.1 1.4c-.1 .1-.2 .2 0 .3c.1 .2 .3 .3 .5 .4q.1-.1 .2-.2c.4-.4 .8-.9 1.2-1.4c.2-.3 0-.4-.2-.5Z" class="g0"/>
<path d="M197.7 83.6c.1 .3 .3 .2 .5 .1c.2-.1 .4-.2 .3-.5c-.4-.5-.6-1.1-.9-1.6c-.1-.1-.2-.2-.3-.2c-.3 0-.6 .4-.5 .7c.3 .5 .6 1 .9 1.5Z" class="g0"/>
<path d="M147.6 45.4c.5 .1 1.1 .3 1.6 .4c.3 .1 .4-.1 .5-.3c0-.3 .1-.5-.3-.6c-.5-.1-1.1-.2-1.6-.3c-.4-.1-.4 0-.5 .3c-.1 .3 0 .4 .3 .5Z" class="g0"/>
<path d="M74.3 167.3c-.2-.2-.4-.1-.6 .1c-.3 .2-.3 .3-.1 .6c.4 .4 .8 .8 1.2 1.2c0 .1 .1 .2 .2 .2c.2-.1 .4-.2 .5-.4c.1-.1 0-.3-.1-.4c-.4-.4-.7-.8-1.1-1.3Z" class="g0"/>
<path d="M204.2 138.4c-.2 0-.5-.2-.6 .2c-.1 .6-.3 1.1-.5 1.7c-.1 .3 .1 .4 .4 .5c.2 0 .4 .1 .5-.2c.1-.6 .3-1.2 .5-1.9c.1-.1 0-.2-.3-.3Z" class="g0"/>
<path d="M58.7 137.4c-.1-.2-.1-.3-.3-.3c-.4 0-.6 .1-.6 .4c.2 .6 .3 1.2 .5 1.9c.1 .3 .4 .1 .6 .1c.2-.1 .3-.2 .3-.4c-.2-.6-.4-1.2-.5-1.7Z" class="g0"/>
<path d="M198.2 152.5c-.2 .4-.3 .8-.6 1.2c-.1 .3-.1 .5 .2 .6c.4 .2 .5 .1 .7-.2c.2-.6 .5-1.1 .8-1.7q-.7-.5-1.1 .1Z" class="g0"/>
<path d="M92.3 54.6c.5-.3 .9-.6 1.4-.9c.1 0 .2-.1 .3-.3c0-.3-.4-.6-.7-.4c-.5 .2-1 .5-1.4 .8c-.3 .1-.4 .3-.2 .6c.2 .2 .3 .4 .6 .2Z" class="g0"/>
<path d="M181.9 63.2c.4 .4 .9 .9 1.4 1.3q.1-.1 .2-.2q.4-.4 0-.8c-.5-.4-.9-.9-1.4-1.3c-.1 .1-.2 .2-.2 .2q-.4 .4 0 .8Z" class="g0"/>
<path d="M155.8 189.6c-.7 .2-1.4 .4-2 .6c-.4 .1-.3 .3-.2 .5c0 .2 .1 .5 .4 .4c.6-.2 1.2-.4 1.8-.6c.2-.1 .3-.2 .2-.4c-.1-.2-.2-.3-.2-.5Z" class="g0"/>
<path d="M59.2 96c.2 0 .5 .3 .6 0c.2-.6 .4-1.3 .6-1.9c.1-.4-.2-.4-.4-.4c-.2-.1-.3-.1-.4 .1c-.2 .6-.4 1.2-.6 1.8c-.1 .2 0 .4 .2 .4Z" class="g0"/>
<path d="M107.7 189.8c-.6-.2-1.2-.4-1.8-.6c-.3-.1-.4 .1-.4 .3c-.1 .3-.2 .4 .1 .5c.6 .2 1.1 .4 1.6 .6c.4 .1 .6 0 .7-.5c0-.1-.1-.2-.2-.3Z" class="g0"/>
<path d="M137.8 43.9c.6 0 1.3 .1 1.9 .2c.3 0 .3-.2 .3-.4c.1-.3 0-.5-.3-.5c-.3 0-.7-.1-1.1-.1c-.2 0-.5-.1-.7-.1c-.3 .1-.3 .2-.3 .4c0 .2 0 .4 .2 .5Z" class="g0"/>
<path d="M129.2 43.6c.5 0 1.1 0 1.6 0c.3 0 .5-.1 .5-.4c0-.4-.2-.5-.5-.5c-.2 0-.5 0-.7 0v.1c-.3 0-.6 0-.9 0c-.3-.1-.4 .1-.4 .4c0 .3 .1 .4 .4 .4Z" class="g0"/>
<path d="M201 147.7c-.3-.2-.5-.1-.6 .2c-.2 .5-.4 .9-.6 1.4c-.2 .4 0 .7 .4 .7c.2 0 .3-.1 .4-.3c.2-.5 .4-1 .6-1.5c.2-.3 0-.4-.2-.5Z" class="g0"/>
<path d="M205.1 104.9c.1 .5 .2 1.1 .3 1.6c0 .4 .3 .4 .5 .3c.3 0 .4-.2 .3-.4c-.1-.6-.2-1.1-.3-1.7c0-.2-.2-.3-.4-.3c-.3 .1-.5 .2-.4 .5Z" class="g0"/>
<path d="M206.8 119.1c-.3-.1-.4 0-.4 .4c-.1 .5-.1 1-.1 1.6c0 .3 .2 .4 .5 .4c.3 0 .4-.2 .4-.4c0-.3 0-.6 0-.8c0-.3 0-.6 0-.8c0-.3-.1-.4-.4-.4Z" class="g0"/>
<path d="M155.5 119.4q0 .1 0 .2c-1.2 .3-2.4 .6-3.7 1c.2-.4 .3-.7 .5-.9c.1-.1 .2-.3 .3-.2c1 .2 2-.1 2.9-.1m-3-2.4c-4.6 .1-9.3-.1-13.9-.4c-3.3-.2-6.7-.5-10-.9c-3.1-.3-6.2-.7-9.2-1.1c-1.5-.2-2.9-.5-4.4-.6c-4.8-.1-9.4 .7-14 2.2c-.5 .2-1 .3-1.5 .6c-.2 .2-.4 .3-.5 .5c-.2 .1-.2 .3-.1 .5c.1 .3 .3 .2 .5 .2c.1-.1 .3-.1 .4-.1c1.4-.3 2.7-.2 4 .3c2.4 .9 4.7 2.1 6.8 3.3c2 1.2 4 2.4 6 3.5c2.3 1.2 4.7 2.1 7.3 2.5c.5 .1 1 0 1.5 .3q0 .1 0 .2c0 0 0 .1-.1 .1c-.7 1.1-1.8 1.7-3.1 2c-.6 .1-1.3 .1-2 .1c-.7 0-1.3 .2-1.8 .6c-.2 .2-.4 .4-.3 .7c0 .2 .3 .2 .5 .2c.2 .1 .4 .1 .6 .1c1.5 .2 3 .4 4.5 .4c2.6 0 5.2 0 7.8 0c2.2 0 4.5 0 6.8-.2c.8-.1 1.6-.2 2.3-.6c.5-.2 .5-.4 .1-.7c-.4-.3-.9-.5-1.3-.6c-1.3-.4-2.5-.5-3.8-.5c-.4 0-.8 0-1.2-.2c-.6-.2-1-.2-1.1-1.4c.2-.1 .3-.1 .4-.1c2.2-.1 4.3-.4 6.3-.8c3.1-.7 6.1-1.7 8.7-3.6c.3-.2 .6-.3 .9-.3c1.1-.3 2.3-.5 3.3-.9c2.3-.7 4.4-1.8 6-3.6c.2-.2 .4-.3 .6-.4c1.2-.8 2.1-2 2.7-3.3c.5-1.1 .3-2.2-.7-3c-.5-.5-1.1-.9-1.8-1.1c-.9-.3-1.8-.6-2.7-.9c-1.2-.3-2.5-.6-3.8-.5c-.9 0-1.7 .2-2.5 .6c-1.1 .7-1.5 1.9-1.1 3c.5 1.2 2.2 2 3.5 1.6c.6-.1 .8-.4 .4-1c-.2-.3-.5-.5-.7-.8c-.3-.4-.3-.5 .2-.8c.7-.5 1.4-.7 2.2-.7c1.8 0 3.3 .6 4.7 1.6c.2 .1 .4 .3 .5 .5c.6 1.4-.1 3.1-1.6 3.4c-1.7 .4-3.4 .8-5.1 1.2c-.2 0-.4 .1-.6-.1c.1-.3 .2-.6 .3-1c-.4 0-.6 0-.9 0Z" class="g0"/>
<path d="M108.1 124.5c0 .6 .2 .9 .4 1.3c.2 .4 .4 .7 .5 1.1c.3 .8 .2 1.3-.5 1.9c-1.4 1-3.1 .4-3.5-1.2c-.2-.7-.2-1.3-.2-2c0-.5 0-1-.1-1.5c-.4-2-2.7-3.4-4.7-2.8c.1 .3 .2 .5 .4 .8c.2 .4 .4 .8 .5 1.2c.2 .8-.1 1.3-.8 1.5c-1 .3-1.7 0-2.3-.6c-.5-.6-.9-1.4-1.1-2.1c-.3-1.1-.9-1.6-1.9-1.7c-1.5 0-2.4-.7-3.1-1.9c-.3-.4-.5-.8-.8-1.1c-.4 .3-.6 .7-.7 1.1c-.2 .7-.3 1.5-.4 2.3c0 1.1 .5 2 1.5 2.6c.6 .3 1.2 .5 1.7 .7c.7 .3 1.3 .6 1.8 1.1c.6 .7 .6 1.6-.2 2.2c-.5 .4-1 .4-1.6 .2c-.5-.2-.9-.6-1.4-1.1c0 .6 0 1 .1 1.5c.4 1.5 1.2 2.8 2.1 4.1c.8 1.1 1.8 1.8 3.1 2c2.9 .5 5.8 .8 8.7 .7c.8 0 1.7-.2 2.5-.4c2-.5 3.4-1.6 4.1-3.7c.5-1.5 .2-2.8-.9-3.9c-.9-1-2-1.6-3.2-2.3Z" class="g0"/>
<path d="M171.7 118c-.7 .9-1.4 1.7-2.4 2.3c-1 .6-1.9 .8-3 .5c-.4-.1-.8-.2-.9-.6c0-.4 .3-.7 .6-.9c.8-.6 1.6-1 2.5-1.4c.4-.1 .7-.3 1.1-.5c-1.8-.1-3.4 .2-4.9 1c-1.8 .9-2.4 2.1-2.3 4.1c0 .8 .3 1.6 .4 2.4c.2 1.2-.1 2.3-1.1 3c-1 .7-2.1 .9-3.2 .3c-1.1-.5-1.5-1.6-1.5-2.8c0-.4 .1-.7 .1-1.1c-2 1-4 2-5.5 3.7c0 .1-.1 .1-.1 .2c-1.2 1.5-1.1 3 .1 4.4c1.3 1.4 2.9 2.1 4.7 2.1c2.4 .1 4.7 .2 7.1-.1c2.4-.3 4.3-1.3 5.7-3.3c1-1.3 1.6-2.8 2.1-4.3c.2-.3 .3-.6 .3-1c-.4 .2-.6 .5-.9 .7c-.3 .4-.6 .7-.9 1.1c-.6 .5-1.3 .7-2 .5c-1-.1-1.3-.7-1.1-1.6c.2-.7 .6-1.3 1.1-1.8c.9-1.1 1.8-2.1 2.8-3.1c.6-.8 1.2-1.6 1.6-2.6c.2-.6 .4-1.2 .3-2.1c-.3 .4-.5 .7-.7 .9Z" class="g0"/>
<path d="M132.7 108.3c.2-1.1 .4-2.1 1.3-2.8c.6-.4 .6-.7 0-1c-.1-.1-.2-.1-.3-.1c-1.3-.5-2.6-.4-3.9-.2c-.7 .2-.8 .6-.4 1.2c.5 .7 .7 1.5 .7 2.3q0 .8-.8 .8c-1.7 0-3.3 .1-5 .3c-3.1 .5-6 1.3-8.8 2.7c-.8 .4-1.6 .9-2.3 1.5c.2 .2 .5 .2 .7 .2c2.3 .1 4.6 .4 7 .7c4.3 .5 8.5 1.2 12.8 1.6c3.6 .4 7.3 .6 10.9 .4c.5 0 1 0 1.7-.1c-.9-1.4-1.9-2.4-3.1-3.3c-2.1-1.6-4.5-2.6-7-3.2c-1-.2-2-.4-3-.6c-.3 0-.6 0-.5-.4Z" class="g0"/>
<path d="M94.2 114.3c1.4 .4 2.9 .3 4.3 .4c1.9 0 3.2-1.1 3.7-2.9c.4-1.3 .3-2.5 .1-3.8c-.2-1.5-1.1-2.6-2.3-3.5c-1.4-1.3-3.1-2.2-4.9-2.9c-.1-.1-.3-.2-.5 0c.4 .6 .8 1.2 1.1 2c.3 1 .4 1.9-.1 2.9c-.1 .4-.2 .9-.6 .9c-.5 .1-.8-.4-1.1-.7c-.6-.8-.6-1.8-.3-2.7c-1.3 .9-2.4 2-3.1 3.5c-.5 .9-.6 1.9-.3 2.9c.6 2.1 2 3.3 4 3.9Z" class="g0"/>
<path d="M105.8 92.1c.2 0 .5 .1 .8 .2c.3 .1 .6 .2 .9 .3c.8 .3 1.3 .9 1.5 1.8c.1 .5 .1 1.1 .1 1.6c-.1 .7-.4 1.4-.4 2.1c.8-.8 1.8-1.5 2.8-2.3c1-.8 1.8-1.8 2.4-3c.6-1.3 .3-2.2-1-2.9h-.1c-1.4-.8-1.8-1.8-1.5-3.3c.3-1.2 .8-2.1 1.5-3c.4-.6 .8-1.1 .9-1.8c0-.7 .1-1.4 .4-2.2c-.5 .3-.9 .6-1.3 .7c-1.1 .3-1.9 1-2.7 1.7c-.6 .5-.9 1.2-.9 2c0 .3 0 .7-.1 1c-.1 1.3-1.3 2.2-2.6 1.9c-.8-.2-1.2-.8-1-1.7c0-.1 .2-.3 0-.4c-.7 .4-1.3 .9-1.7 1.6c-1.6 2.4-.7 4.8 2 5.7Z" class="g0"/>
<path d="M102.9 102.9c2-.1 3.4-1.1 4.1-2.9c.7-1.9 .6-3.6-.7-5.2c-.2-.2-.3-.5-.7-.5c-.4 1.4-1.3 1.8-2.7 1.5c-1.6-.4-2.5-1.8-2.4-3.5c.1-.8 .3-1.5 .6-2.3c-.9 .6-1.5 1.3-2.1 2c-.4 .4-.8 .8-1.2 1.1c-1 .8-1.5 1.9-1.6 3.1c-.3 3 2.1 7.1 6.7 6.7Z" class="g0"/>
<path d="M147.6 92.2c.4 .4 .9 .7 1.4 .9c1.6 .9 3 .7 4.4-.6c.9-.8 1.7-1.7 2.5-2.8c.2-.3 .5-.7 .6-1.1c.6-1.5 .3-2.9-.6-4.1c-.2-.4-.5-.6-1-.7c.2 .4 .3 .8 .4 1.1c.2 .5 .2 1-.2 1.3c-.5 .6-1.1 .6-1.8 .4c-.6-.1-.9-.6-.9-1.2c0-.5 0-1 0-1.5c0-1.2-.2-2.3-1-3.2c-1.2-1.3-2.7-1.7-4.3-2.2c0 .3 .1 .5 .2 .6c.5 .6 1.1 1 1.7 1.5c.5 .3 .9 .7 1.3 1.1c.4 .6 .5 1.2 .4 1.9c-.2 .4-.5 .7-1 .8c-.3 0-.6-.2-.8-.7c-.2-.3-.2-.6-.3-.9c-.4 .5-.5 .5-.4 1.4c.1 1.1-.2 2.1-.9 3c-.2 .3-.3 .6-.5 .9c-.8 1.6-.5 3 .8 4.1Z" class="g0"/>
<path d="M161.2 98.1c-2.4 1.5-3.1 3.7-2.3 6.3c.5 1.2 1.1 2.4 1.7 3.5c.2 .3 .3 .7 .6 1c.2-1.6 1.1-2.6 2.2-3.5c.9-.6 1.9-1.2 2.9-1.7c.7-.4 1.4-.8 1.9-1.5c.9-.9 1.4-2.5 0-4c-.1 .1-.2 .2-.2 .3c-.6 .7-1.4 1-2.1 .6c-.7-.4-.9-1-.5-2c.2-.5 .4-1 .5-1.5c.2-.7 0-1.2-.5-1.7c-.2-.2-.4-.2-.6 .1c-.2 .4-.5 .7-.6 1.1c-.5 1.1-1.2 2-2.3 2.5c-.2 .2-.5 .4-.7 .5Z" class="g0"/>
<path d="M166.8 105.9c-.5 .2-1.1 .4-1.6 .7c-.6 .3-1.2 .8-1.6 1.4c-1.5 2.2-.7 5.3 1.7 6.6c.3 .2 .7 .3 1 .5c1.3 .7 2.6 .5 3.7-.4c.8-.6 1.5-1.4 2-2.3c1-1.4 1-2.9 .3-4.4c-.3 .2-.2 .5-.4 .7c-.4 .7-1.2 .8-1.8 .2c-.2-.3-.3-.6-.4-.9c-.1-.5 0-1 .2-1.5c.2-.6 .5-1.2 .7-1.7c.3-.6 .5-1.2 .5-1.8c-.1-.4-.1-.7-.4-1c-.4 1.9-.9 2.6-2.6 3.4c-.5 .1-.9 .3-1.3 .5Z" class="g0"/>
<path d="M119.5 89.9c2.6 .5 4.4-1.7 3.7-4.1c-.1-.5-.3-1-.5-1.5c-.4-.7-.7-1.4-1.1-2.2c-.7-1.5-1.2-3-.5-4.9c-.4 .3-.7 .5-1 .6c-.4 .1-.8 .3-1.2 .6c-1.7 1.2-3 2.8-3.8 4.7c-.6 1.1-.6 2.3-.1 3.4c.9 1.9 2.4 3.1 4.5 3.4Z" class="g0"/>
<path d="M150.1 151.3c0 .3-.6 .5-.9 .3c-.3-.1-.4-.3-.2-.7c.3-.6 .8-.8 1.4-1.1c-.1 .5-.3 1-.3 1.5m-15.1 .2c-.2 .1-.4 .2-.5 0c-.1-.2-.1-.4 0-.5c.1-.2 .3-.3 .4-.4c.7-.5 1.5-.7 2.3-.9c-.7 .7-1.4 1.4-2.2 1.8m27.1 0c.3-.6 .6-1.1 .9-1.5c.1-.3 0-.5-.2-.7c-.2-.2-.4-.1-.6 .1c-.4 .4-.8 .8-1.2 1.2c-.3 .3-.7 .6-1.2 .7c-.2 0-.4 .1-.5-.1c0-.2 0-.3 .1-.5c.2-.3 .5-.4 .8-.6c.6-.3 1.2-.6 1.8-.9c.2-.1 .4-.2 .4-.4c-.1-.4-.4-.3-.6-.3c-.1 0-.2 0-.3 0c-.9 .3-1.8 .7-2.5 1.4c-.6 .6-1.3 .8-1.9 1.3c-.2 .2-.4 .2-.5 0c-.2-.1-.1-.3 0-.4c.2-.2 .3-.4 .5-.6c.2-.2 .4-.3 .6-.5c.2-.3 .2-.8 0-1c-.3-.3-.5 0-.7 .1c-.2 0-.4 .2-.6 .3c-.9 .5-1.7 1.2-2.5 1.8c.2-.5 .7-.8 1-1.1c.1-.2 .4-.4 .3-.6c-.2-.3-.5-.2-.8-.2c-.2 0-.3 .1-.4 .3c-.3 .2-.5 .4-.7 .7c-.3 .7-1 .7-1.6 1c.3-1 .2-1 .1-1.9c0-.6-.3-.6-.7-.6c-1.1 .1-2 .5-2.7 1.4c-.4 .6-1 .9-1.6 1.3c-.2 .1-.5 .3-.7 .1c-.3-.3 0-.6 .2-.8c.3-.3 .5-.5 .8-.8c.2-.3 .2-.6-.1-.9c-.2-.3-.4-.1-.7 .1c-.1 .1-.3 .2-.4 .3c-.6 .4-1.1 .8-1.7 1.1l-.1-.1c.1-.1 .2-.3 .4-.5c.2-.3 .5-.7 .1-1c-.3-.4-.7-.1-1 .1c-.8 .4-1.5 1-2.1 1.6c-.3 .2-.4 .5-.8 .6c.1-.4 .3-.6 .5-.8c.2-.2 .4-.4 .6-.7c.2-.1 .3-.2 .2-.4c-.1-.2-.3-.2-.5-.2c-.3 0-.5 .1-.7 .3c-.3 .2-.5 .5-.7 .8c-.2 .3-.8 .8-1.1 1c-.3 .2-.6 .4-1 .5c-.4 0-.5-.2-.4-.5c.1-.2 .2-.3 .3-.4c.3-.4 .7-.8 .6-1.4c-.1-.4-.2-.5-.4-.6c-.3-.1-.6-.1-.8 0c-1 .2-1.9 .6-2.7 1.1c-.3 .2-.6 .5-.8 .8c-.4 .5-.4 1 .2 1.6c.4 .4 .6 .4 1.3 0c.3-.2 .5-.4 .8-.6c.2-.1 .3-.3 .5-.2c0 .2-.1 .4-.2 .6c0 .6 .3 .8 .8 .7c.4-.1 .7-.3 1-.5c.5-.3 .9-.6 1.3-.9c.1 .2 .1 .4 .2 .5c.3 .8 .6 .9 1.2 .3c.4-.3 .7-.7 1.1-1.1c.3-.2 .5-.6 1-.8c-.1 .4-.4 .6-.5 .9c-.1 .2-.3 .5-.4 .7c-.1 .2-.1 .4 .1 .6c.1 .2 .4 .2 .6 .1c.2-.1 .4-.3 .7-.4c.5-.5 1-.9 1.5-1.3c0 .4-.2 .6-.3 .9c-.1 .3-.1 .6 .1 .8c.2 .2 .5 .2 .8 .1c.3-.1 .6-.3 .9-.5c.5-.3 1-.6 1.5-.9c0 .2 0 .3 .1 .4c.4 .9 1 1.2 1.9 .8c.3-.1 .5-.2 .7-.3c.1-.1 .3-.3 .5-.3c.5 0 1-.2 1.5-.6c.1 .3 .1 .5 .2 .7c.2 .6 .5 .8 1 .3c.3-.2 .5-.4 .7-.6c.3-.4 .6-.7 1.2-1.1c-.3 .5-.4 .8-.6 1.1c-.1 .3-.1 .7 .2 .9c.3 .3 .6 .2 .9 .1c.5-.3 1-.7 1.4-1c.2-.2 .4-.5 .7-.4c.3 1.3 .8 1.4 1.9 .8c.3-.2 .6-.4 1-.7c-.2 .7-.5 1.1-.9 1.4c-.5 .3-1 .7-1.4 1.1c-.3 .4-.8 .8-.5 1.2c.4 .4 .9-.2 1.2-.4c.5-.4 .9-.8 1.3-1.3c.2-.4 .5-.7 .9-.9c.5-.4 1.1-.7 1.6-1.1c.2-.1 .3-.2 .1-.5c-.5 .1-.9 .6-1.5 .8Z" class="g0"/>
<path d="M140 89c1.7 .7 4.7-.3 5.1-3c0-.7 0-1.4-.1-2c-.5-2.2-1.6-4.1-2.9-5.9c-.4-.6-.9-.8-1.7-1c.6 1.2 .3 2.1-.2 3.1c0 .1-.1 .3-.1 .4c-.5 .9-.9 1.8-1.3 2.7c-.5 1-.7 2.1-.6 3.2c.2 1.1 .7 2.1 1.8 2.5Z" class="g0"/>
<path d="M154.7 96.2c0 1.2 .9 2.1 2.1 2.1c.6 0 1.1-.1 1.6-.4c1.7-1.1 3.1-2.5 4.3-4.2c.4-.8 .6-1.6 .5-2.5c-.4-2.3-1.8-3.8-3.9-4.8c0 .2 .1 .3 .2 .4c.6 1 .5 2-.2 2.9c-.4 .4-.7 .8-1.1 1.1c-.6 .5-1.1 .9-1.6 1.4c-1.1 1.1-1.9 2.3-1.9 4Z" class="g0"/>
<path d="M156.7 143.9c-.1 .1-.2 .1-.3 .2c-.2 0-.3 .1-.5 0c-.1-.2 0-.3 0-.5c.2-.2 .4-.4 .6-.6c.6-.3 1.3-.6 2.1-.7c-.6 .6-1.2 1.1-1.9 1.6m-5.5-.2c.5-.7 1-1.1 1.9-1.3c-.6 1.2-1 1.5-1.9 1.3m-6.5 .4c-.1 0-.3 .1-.5 0c-.2-.2 0-.4 .1-.6c.1-.2 .3-.3 .5-.4c.6-.4 1.3-.7 2-.8c-.6 .7-1.3 1.3-2.1 1.8m21.8-1.1c-.3 .2-.5 .4-.8 .5c-.2 .2-.4 .3-.6 .4c-.1 0-.2 0-.3 0c-.1-.1-.1-.2 0-.4c.1-.2 .2-.4 .4-.5c.2-.3 .4-.5 .6-.7c.3-.3 .4-.7 .1-1c-.2-.3-.5-.1-.8 .1c-.9 .5-1.8 1.1-2.6 1.9c-.1 .1-.2 .3-.4 0c.3-.3 .7-.6 1-1c.2-.1 .5-.3 .3-.6c-.2-.3-.5-.2-.8-.1c-.2 0-.3 .2-.5 .3c-.3 .3-.6 .6-.8 1c-.1 .2-.1 .4-.3 .4c-.5 0-.7 .4-1.2 .6c-.2 .1-.5 .3-.7 0c-.3-.2 0-.5 .2-.7c.4-.4 .7-.8 .6-1.5c0-.3-.1-.5-.3-.5c-.2-.1-.4-.1-.7-.1c-1.2 .2-2.4 .7-3.3 1.6c-.5 .4-1 .7-1.5 1.1c-.4 .2-.7 .4-1.2 .3c0-.3 .2-.4 .4-.5c.3-.3 .6-.6 .9-.9c.2-.4 .5-.8 .2-1.2c-.3-.4-.8-.2-1.1 0c-.4 .2-.8 .4-1.3 .6c0-.3 .1-.4 .2-.5c.4-.4 .8-.7 1.1-1.1c.1-.1 .2-.2 .1-.4c0-.1-.2-.2-.4-.2c-.4 0-.6 .2-.9 .5c-.9 .9-1.8 1.7-2.7 2.6c-.5 .4-1 .8-1.6 1c-.2 .1-.4 0-.5-.1c-.1-.2 0-.3 .1-.4c.1-.2 .2-.3 .3-.4c.3-.4 .5-.7 .5-1.2c-.1-.7-.2-.9-.8-.8c-1.4 .2-2.7 .7-3.7 1.7c-.6 .6-.6 1.2-.1 1.7c.5 .6 .8 .6 1.5 .1c.4-.3 .8-.6 1.3-.9c-.1 .3-.1 .4-.1 .5c-.1 .3-.3 .6 0 .9c.4 .3 .7 .1 1-.1c.5-.2 .9-.5 1.3-.8c.6-.4 1.2-.9 1.8-1.4c.1 .3-.1 .4-.2 .6c-.5 .6-.9 1.3-1.4 1.9c-.3 .4-.5 .8-.5 1.4c0 .1 0 .3 .2 .4c.2 .1 .4 0 .5-.2c.1-.2 .2-.3 .3-.5c.3-.4 .5-.8 .7-1.2c.1-.2 .3-.4 .6-.3c.3 0 .5-.1 .8 0c1 .3 1.9-.1 2.8-.6c.2-.1 .4-.4 .8-.4c0 .1 .1 .2 .1 .3c.6 .9 .9 .9 1.7 .4c.4-.3 .8-.6 1.2-.9c.1 .3 0 .5-.1 .7c-.1 .6 .2 1 .8 .8c.6-.2 1.1-.6 1.6-1c.2-.1 .4-.3 .7-.4c0 .3 .1 .5 .1 .6c.2 .6 .6 .7 1 .3c.3-.2 .5-.5 .7-.7c.3-.3 .6-.6 1.2-1c-.3 .5-.4 .7-.5 1c-.1 .3-.2 .6 .1 .9c.2 .3 .6 .2 .9 .1c.1 0 .2 0 .3-.1c.6-.4 1.2-.9 1.7-1.4c.2-.1 .2-.3 .1-.5q-.1 0-.1 0Z" class="g0"/>
<path d="M130.4 86.9c2.2-.1 3.9-1.2 5-3.1c1-1.7 .7-3.5-.8-4.8c-.4-.4-.9-.8-1.4-1.1c-.8-.6-1.5-1.2-1.8-2.2c-.4 .2-.6 .4-.8 .7c-.4 .6-.4 1.1 0 1.8c.2 .3 .4 .6 .7 .8c.2 .1 .4 .3 .6 .5c.8 .7 .9 2.1 .2 2.9c-.5 .5-.9 .5-1.4 .1c-.3-.3-.4-.6-.5-1c-.1-.7-.2-1.3-.4-2.2c-.4 1-1 1.7-1.6 2.3c-.2 .3-.5 .6-.7 .9c-.7 1-.6 2.1 .1 3.1c.7 .8 1.7 1.3 2.8 1.3Z" class="g0"/>
<path d="M139 158.9c-.1 0-.2 .1-.4 .1c-.3 .1-.4-.1-.3-.4c.1-.2 .3-.4 .5-.6c.6-.4 1.3-.7 2.1-.8c-.5 .7-1.2 1.2-1.9 1.7m-4.8-.7c-.1-.1-.1-.2 0-.2c.5-.4 1-.8 1.8-.9c-.4 .7-1 .9-1.5 1.2c-.1 .1-.3 0-.3-.1m-6.7 .5c-.2 .2-.6 .5-.8 .2c-.3-.3 .1-.6 .4-.9c.6-.4 1.4-.7 2.2-.8c-.5 .6-1.1 1.1-1.8 1.5m-4.4-.1q-.3 .3-1.2-.4c.5-.4 .9-.8 1.4-1.1c.4 .8 .3 1.2-.2 1.5m20.1-.4c-.2 .1-.3 .2-.5 .3c-.2 .1-.4 .2-.6 .3c-.2 .1-.4 .2-.6 0c-.2-.2 0-.4 .1-.6c.1-.1 .2-.3 .4-.4c.5-.4 .2-1 .4-1.4c0-.1-.2-.3-.3-.3c-.3-.1-.5-.1-.7-.1c-1.4 .2-2.7 .8-3.6 1.8c-.6 .5-1.2 .9-1.9 1.2c-.5 .3-.8 .2-1.1-.2c.2-.3 .5-.4 .8-.5c.4-.2 .7-.4 1-.7c.5-.4 .6-.9 .3-1.3c-.3-.3-.6-.3-1.2 0c-.8 .4-1.5 .9-2.2 1.5c-.2 .1-.3 .2-.5 .1c.4-.4 .8-.7 1.1-1.1c1-.8 2-1.7 2.9-2.7c.2-.2 .6-.5 .3-.9c-.3-.3-.7 .1-.9 .2c-1.7 1.1-3.1 2.3-4.1 3.9c-.4 .7-1 1.1-1.6 1.4c-.1 .1-.3 .1-.5 .2c-.2 0-.3 0-.4-.1c-.1-.2-.1-.3 0-.4c.2-.3 .3-.5 .6-.7c.4-.4 .1-.9 .3-1.3c0-.2-.2-.3-.3-.3c-.2-.1-.4-.1-.6-.1c-1.4 .2-2.6 .7-3.5 1.6c-.6 .5-1.3 .9-1.9 1.3c-.2 .1-.5 .3-.9 .2c.1-.1 .2-.2 .3-.3c1-.6 1.2-1.5 .8-2.6c-.1-.2-.1-.5-.4-.5c-.3 0-.6 0-.7 .3c-.1 .4-.5 .6-.8 .9c-.5 .4-1 .8-1.5 1.2q-.5 .5 0 1c1 1 1.9 1.2 3.1 .5c.5-.3 .9-.6 1.3-.8c.2 0 .2 .2 .2 .3c.6 .8 .9 .9 1.8 .3c.4-.2 .7-.5 1.2-.8c0 .3-.1 .5-.2 .7c-.1 .6 .3 1 .9 .7c.3-.1 .7-.3 1-.5c.4-.3 .8-.5 1.2-.8c0 .2 .1 .3 .1 .4c.1 .1 .1 .2 .1 .3c.2 .5 .4 .5 .8 .2c.2-.3 .3-.6 .6-.7c.3 .2 .4 .5 .7 .8c.5 .4 1 .5 1.6 .2c.3-.2 .6-.4 .9-.5c.3-.2 .5-.5 .8-.6c.1 .1 .2 .2 .2 .3c.6 .8 .9 .9 1.7 .4c.4-.3 .8-.7 1.2-.8c.1 .2 0 .3 0 .5c-.1 .3-.2 .6 .1 .8c.3 .2 .6 .1 .8 0c.7-.4 1.4-.8 1.9-1.3c.1-.1 .2-.1 .2-.2q0-.1 0-.2c-.1-.1-.2-.1-.2-.1Z" class="g0"/>
<path d="M106.5 143.6c.1 .4-.2 .5-.4 .6c-.3 .1-.5 .1-.7-.1c-.2-.2-.1-.4 0-.7c.2-.5 .7-.8 1.4-.9c-.2 .4-.4 .7-.3 1.1m2.3-.4c-.2 .1-.4 .4-.7 .2c.2-.6 .4-1.1 .1-1.8c-.2-.5-.2-.6-.8-.5c-.8 .1-1.5 .3-2.1 .8c-.5 .4-1 .9-1.5 1.3c-.3 .2-.7 .5-1.1 .8c-.1 .1-.4 .2-.6 .1c-.1-.2-.1-.4 0-.6c.1-.3 .3-.5 .4-.8c.5-.8 1.1-1.6 1.6-2.3c.3-.3 .5-.6 .6-.9c.4-.5 .3-.9-.2-1.3c-.4-.3-.7-.2-1.1 0c-1.2 .7-2.1 1.7-3.1 2.7c-.2 .2-.4 .5-.9 .7c.5-.7 .8-1.3 1.1-1.8c.2-.4 .4-.8 .5-1.2c.1-.6-.1-.8-.7-.8c-.2-.1-.5 0-.8 0c-.5 .2-1.1 .4-1.6 .7c-.1 0-.3 .1-.3-.1c0-.4-.1-.3-.3-.2c-.8 .4-1.5 1-1.9 1.8c-.1 .1-.1 .2-.1 .3c-.1 .3-.2 .6 0 .7c.3 .3 .5 0 .7-.1c.8-.4 1.5-.9 2.4-1.2c.3-.2 .7-.6 1-.3c.3 .3-.1 .7-.3 1c-.1 .4-.3 .8-.5 1.1c-.6 .9-1.1 1.7-1.7 2.6c-.2 .3-.2 .5 .1 .7c.5 .3 .7 .4 1 .1c.2-.3 .4-.5 .6-.8c1.1-1.3 2.2-2.5 3.5-3.6c.1-.1 .3-.3 .6-.3c-.6 .9-1.1 1.7-1.6 2.5c-.2 .5-.5 .9-.6 1.4c-.2 .5-.2 1 .2 1.3c.4 .4 .8 .2 1.3 0c.5-.3 1-.8 1.5-1.2c.3-.2 .5-.6 .8-.7c.1 .1 .1 .2 .1 .3c.3 1.2 1.1 1.6 2.3 1c.1-.1 .2-.1 .2-.2c.3-.2 .6-.3 1-.4c.5 0 .9-.3 1.2-.7c.1-.1 .1-.2 0-.3c-.1-.1-.2-.1-.3 0Z" class="g0"/>
<path d="M116.7 146.6c-.5 .9-1.3 1.6-2.1 2.3c.5-1 1.2-1.7 2.1-2.3m3.8 2.6c-.3 .6-.9 .9-1.5 1c.3-.5 .7-1 1.5-1m3.2 .3c.3 1.1 .2 1.4-.3 1.7c-.3 .2-.3 .3-1.1-.5c.5-.4 .9-.7 1.4-1.2m-7.8 1.9c.6 0 1.1-.2 1.6-.5c.1 .1 .1 .2 .1 .3c.1 1.2 .8 1.6 1.9 1.3c.5-.2 1-.4 1.5-.8c.3-.2 .4-.2 .7 .1c.7 .8 1.5 1 2.5 .5c.5-.1 .9-.4 1.2-.7c.3-.2 .5-.3 .9-.3q0 .1 0 .2c-.2 1.1 .3 1.5 1.3 1.1c.7-.3 1.3-.8 1.9-1.2c.2-.2 .5-.3 .3-.6c-.2-.3-.4 .1-.6 .2c-.3 .1-.6 .3-.9 .5c-.2 .1-.5 .3-.7 0c-.3-.2-.1-.5 0-.7c.1-.2 .2-.4 .3-.5c.3-.5 .6-1 1.3-1c.5 .1 .7-.3 1-.7c.1-.2 .3-.5-.2-.6c-.2 0-.1-.2 0-.3c.2-.4 .1-.6-.4-.5c-.3 0-.6 .2-.8 .5c-.2 .2-.4 .4-.8 .4c-.7 0-1.1 .5-1.4 1.2c.2 .1 .5-.1 .8 .1c-.5 1.1-1.7 1.4-2.5 2c-.3 .2-.6 .4-1 .1c1.1-.7 1.5-1.6 1-2.8c0-.2-.1-.4-.3-.5c-.3 0-.6 .1-.7 .4c-.1 .2-.2 .4-.4 .5c-.8 .6-1.5 1.3-2.3 1.8c-.4 .3-.8 .5-1.2 .7c-.3 .1-.5 .1-.8 0c-.2 0-.4-.2-.4-.4c0-.3 .2-.3 .3-.4c.4-.2 .8-.3 1.2-.5c.4-.2 .8-.4 1.1-.8c.3-.5 .1-.9-.5-1c-1.2-.1-2.2 .5-2.9 1.5c-.4 .6-1 .6-1.6 .8c0-.5 .4-.8 .4-1.2c0-.5-.2-.7-.7-.5c-.7 .2-1.2 1-1.2 1.7c0 .4-.3 .8-.7 .8c-.3 0-.5-.4-.5-.8c0-.2 .1-.4 .3-.6c.3-.2 .5-.4 .8-.7c.8-.7 1.7-1.4 2.4-2.3c.3-.3 .6-.7 .7-1.1c.1-.2 .2-.5-.1-.7c-.2-.1-.4 0-.6 .1c-1.6 .9-3.1 2.1-4 3.8c-.3 .7-.4 1.5-.3 2.3c.1 .8 .5 1 1.3 .8c.4-.1 .8-.4 1.1-.6c.2-.2 .3-.4 .6-.4Z" class="g0"/>
<path d="M120.6 155.8c-.8 1.5-1.9 2.6-3.5 3.2c-.2 .1-.5 .1-.7 .1c-.5 0-.8-.3-.7-.8c.1-.7 .5-1.3 1-1.8c0-.1 .1-.1 .3-.1c.3 .2 .4-.1 .5-.3c.6-.6 1.2-1 2-1.3c.2-.1 .5-.1 .8-.1c.4 0 .6 .2 .5 .6c0 .2-.1 .4-.2 .5m1.2-.1c.2-.9 0-1.3-.8-1.7c.6-.4 .6-.7 0-1.1c-.4-.2-.8-.2-1.2 0c-1.7 .5-3.2 1.4-4.5 2.8c-.2 .3-.5 .7-.6 1.1c-.3 .8-.3 1.7 .3 2.4c.5 .7 1.3 .8 2.2 .7c1.8-.4 3.1-1.4 4.1-2.9c.2-.4 .4-.8 .5-1.3Z" class="g0"/>
<path d="M143.9 139.1c.2-1-.2-1.4-1.2-1.2c-2 .3-4 1.8-4.6 4.5c0 .2 0 .4 0 .6c0 .6 .4 .8 .9 .5c.5-.4 .9-.8 1.3-1.3c-.3-.2-.4 .2-.7 0c.4-1.6 2-3.2 3.3-3.3c-.1 .7-.3 1.4-.7 2c-.5 .8-1 1.6-1.5 2.4c-.3 .4-.6 .7-1 .9c-.9 .4-1.7 1-2.4 1.7c-.2 .2-.4 .5-.5 .8c-.1 .3-.1 .5 .1 .7c.2 .2 .5 .1 .7 0c.4-.2 .7-.5 1-.8c.7-.7 1.4-1.4 2.1-2.2c.3-.3 .6-.5 .9-.6c.5-.2 .9-.4 1.3-.6c.1 0 .2-.1 .1-.2c0-.1-.1-.2-.2-.1c-.3 .1-.6 .3-1 .2c.4-.7 .8-1.3 1.2-1.9c.4-.7 .7-1.4 .9-2.1Z" class="g0"/>
<path d="M106.2 152.7c-.1 .5-.5 1-1.1 1.3c-.3-.6-.2-1.3 .2-1.8c.3-.2 .5-.1 .8 0c.2 0 .1 .3 .1 .5m1.9-6.2c-.7 .8-1.2 1.6-1.7 2.5c-.7 1.2-2 1.7-3.1 2.4c0 0-.1 .1-.1 .1c-.4 0-.7 .1-.9-.3c-.1-.3 .2-.5 .4-.6c.4-.3 .8-.7 1.1-1.1c.2-.4 0-.7-.4-.6c-.1 0-.2 0-.3 0c-1 .4-1.6 1.1-1.8 2.2c-.1 .5 0 1 .4 1.3c.5 .3 .9 .2 1.4 0c.4-.2 .7-.5 1.1-.8c.1-.1 .2-.1 .3-.1c.1 .1 .1 .2 .1 .3c-.2 .4-.4 .8-.6 1.1c-.2 .6-.2 1.2 0 1.7c.2 .3 .4 .5 .8 .3c1-.4 1.9-1 2.2-2.1c.2-.7 .4-1.1 1-1.4c.1 0 .2-.1 .2-.2c.2-.1 .4-.2 .3-.4c-.2-.3-.3-.1-.5 0c-.1 0-.1 .1-.2 .1q-.9 .5-1.4-.4c.6-.8 1.3-1.6 1.9-2.4c.3-.3 .5-.6 .6-1c.1-.4 .4-.8 0-1c-.4-.2-.6 .2-.8 .4Z" class="g0"/>
<path d="M130.4 145.1c.2 0 .4-.1 .6-.2c.7-.4 1.2-.9 1.7-1.4c.2-.1 .2-.3 0-.5c-.4 .3-.7 .5-1.1 .8c-.2 .1-.4 .2-.6 .1c-.1-.2 0-.5 .1-.6c.3-.3 .5-.5 .8-.8c.1-.1 .2-.3 .3-.4c.2-.3 .1-.6-.1-.8c-.2-.3-.4-.1-.6 0c-.4 .2-.8 .4-1.2 .7c-.6 .4-1.2 .9-1.8 1.5q-.1-.1-.2-.2c.4-.3 .7-.7 1.1-1c.1-.2 .4-.3 .2-.6c-.1-.2-.4-.2-.6-.2c-.3 .1-.4 .2-.6 .3c-.4 .4-.7 .8-.9 1.2c-.1 .1-.1 .4-.3 .3c-.4 0-.6 .3-.8 .4c-.3 .2-.6 .3-.9 .4c-.3 0-.5-.1-.7-.4c0-.2 .2-.4 .4-.5c.4-.3 .8-.6 1.1-1.1c.1-.1 .2-.3 .1-.5c-.1-.2-.3-.2-.6-.2c-1.1 .2-2.2 1.8-1.9 2.8c.1 .7 .6 1 1.2 .9c.5-.1 .9-.4 1.3-.7c.3-.2 .5-.5 .8-.6c0 .2 0 .3 .1 .4c.2 .8 .6 .9 1.2 .4c.3-.3 .6-.7 .9-1c.2-.2 .4-.4 .8-.5c-.2 .4-.5 .8-.6 1.2c-.1 .5 .2 .9 .8 .8Z" class="g0"/>
<path d="M114.9 143.8c-.2 .8 0 1.2 .8 1.4c.3 .1 .4 .1 .4-.2c0-.7 .3-1.3 .6-1.8c.7-1 1.4-2 2-3.1c.2-.2 .3-.4 .4-.7c.2-.3 .2-.6-.1-.9c-.2-.3-.5-.2-.8-.1c-.5 .3-1 .6-1.6 .8c-.1 .1-.2 .2-.3 .4c-.1 0-.1 .2-.1 .3c.1 .1 .2 0 .3 0c.3-.1 .5-.3 1-.2c-.6 .8-1.2 1.5-1.7 2.2c-.4 .6-.7 1.2-.9 1.9Z" class="g0"/>
<path d="M124.2 82c.6 .2 1.2 .3 1.7 0c.6-.3 .6-.9 .5-1.4c0-.2 0-.5-.1-.7c-.2-1.2-.7-2.2-1-3.5c-.1 .2-.2 .3-.3 .4c-.2 1-.8 1.9-1.1 2.8c-.2 .5-.3 1-.3 1.5c.1 .4 .2 .7 .6 .9Z" class="g0"/>
<path d="M111.1 143.5c-.5 0-1.1 .5-1.1 1c0 .2 .1 .4 .3 .4c.5 .3 1 .1 1.3-.7c.2-.5 0-.7-.5-.7Z" class="g0"/>
<path d="M145.3 158.3c-.4 0-1 .6-1 1.1c-.1 .2 0 .3 .2 .4c.6 .3 1.1 0 1.3-.7c.2-.5 .1-.7-.5-.8Z" class="g0"/>
<path d="M104.9 147.8c0-.3-.2-.4-.4-.4c-.5 0-.9 .4-.9 .8c0 .3 .1 .4 .4 .4c.4 .1 .9-.4 .9-.8Z" class="g0"/>
<path d="M127.4 140.6c0-.1 0-.2 .1-.2c0-.2-.1-.4-.3-.4c-.4-.1-.9 .2-1 .6c-.1 .2-.1 .5 .2 .6c.4 .1 .9-.2 1-.6Z" class="g0"/>
<path d="M74.5 95.8c.5 .4 .9 .8 1.5 1.1c.6 .2 1.2 .4 1.8 .5c.6 0 1.1-.1 1.7-.2c.5-.2 1-.5 1.5-.9c.4-.3 .8-.8 1.1-1.4c.2-.6 .4-1.2 .4-1.8c0-.5-.1-1.1-.3-1.6c-.2-.5-.5-1-.9-1.5c-.4-.4-.9-.7-1.4-1h-.1c-.5-.3-1.1-.4-1.7-.5c-.6 0-1.2 0-1.7 .2c-.5 .2-1.1 .4-1.5 .8c-.5 .4-.8 .9-1.1 1.5c-.3 .5-.4 1.1-.4 1.7c-.1 .6 0 1.2 .2 1.7c.2 .5 .5 1 .9 1.4Z" class="g0"/>
<path d="M186.4 94.3c.5 .3 1 .2 1.6-.1c.6-.3 1-.7 1.1-1.3c.1-.5 0-1.1-.3-1.8l-1.4-2.9L183.6 90l1.4 3c.4 .7 .8 1.1 1.4 1.3Z" class="g0"/>
<path d="M193.5 126.3l-2.1 1.5l.8 2.5l-2.1-1.6l-2.1 1.6l.8-2.5l-2.1-1.5v-.1h2.6l.8-2.4l.8 2.4h2.6Zm-2.6 19c-.5 1-1 1.8-1.7 2.3c-.7 .5-1.4 .9-2.2 1.1l-.8-2.4c.6-.1 1.1-.4 1.5-.7c.4-.3 .8-.8 1-1.3c.2-.5 .3-.9 .2-1.3c-.2-.4-.4-.7-.8-.9H188c-.4-.2-.8-.2-1.3 .1c-.4 .3-.7 .7-1 1.4l-.5 1l-1.7-.3l-1.5-3.8l-1.9 4.3l-2.1-.9l3.4-7.5l1.8 .8l1.4 4c.2-.3 .5-.6 .8-.9c.3-.3 .6-.5 1-.7c.4-.2 .8-.3 1.2-.3c.4 0 .9 .1 1.4 .4h.1c.5 .2 .9 .5 1.3 .9c.3 .4 .6 .8 .8 1.3c.1 .5 .2 1 .2 1.6c-.1 .6-.2 1.2-.5 1.8m-8.5 13.5c-.2 .6-.6 1.1-1 1.6c-.4 .5-.9 .9-1.4 1.3c-.5 .3-1 .5-1.5 .6c-.5 .2-1 .2-1.5 .1c-.4-.1-.9-.3-1.3-.7c-.6-.5-.9-1-1.1-1.5c-.1-.6-.1-1.2 .1-1.9c-.5 .2-1 .3-1.5 .2c-.5 0-1-.3-1.5-.7h-.1c-.3-.3-.6-.6-.8-1.1c-.1-.4-.2-.8-.2-1.3c0-.5 .1-1 .3-1.5c.2-.5 .5-1 .9-1.5c.4-.5 .9-.9 1.3-1.2c.5-.3 1-.5 1.4-.6c.5-.1 1 0 1.4 .1c.5 .1 .9 .3 1.2 .6c.5 .4 .9 .9 1 1.3c.1 .5 .2 1 .1 1.6c.6-.3 1.2-.4 1.8-.4c.5 0 1.1 .2 1.6 .7h.1c.4 .4 .7 .8 .9 1.3c.2 .4 .2 .9 .2 1.4c0 .5-.2 1.1-.4 1.6M169 171.3c-.3 .6-.9 1.2-1.6 1.7c-.7 .5-1.4 .8-2.1 .9c-.7 .2-1.3 .2-2 .1v-2.4c.6 0 1.1 0 1.5-.1c.5-.1 .9-.3 1.3-.6c.6-.4 1-.9 1-1.6c.1-.6-.1-1.3-.5-2c-.1 .3-.3 .7-.5 1.1c-.3 .3-.6 .6-1.1 .9c-.5 .4-1.1 .7-1.6 .8c-.5 .2-1.1 .2-1.6 .1c-.5 0-.9-.2-1.4-.5c-.4-.3-.8-.7-1.1-1.2h-.1c-.3-.5-.5-1.1-.6-1.6c-.1-.6-.1-1.1 0-1.6c.1-.6 .4-1.1 .7-1.6c.4-.5 .8-.9 1.4-1.3c.3-.2 .6-.4 1-.6c.2-.1 .5-.2 .8-.3c.3-.1 .6-.1 .9-.1c.3 0 .6 .1 .9 .1c.3 .1 .6 .2 .9 .3c.3 .1 .6 .3 1 .6c.3 .2 .6 .5 .9 .8c.3 .4 .6 .8 1 1.3c.6 .8 1 1.6 1.2 2.5c.3 .8 .4 1.5 .4 2.2c-.1 .8-.3 1.5-.7 2.1m-15.8 8.6l-3.3-9l-1.8 1.3l-1.3-1.9l2.9-2.2l1.7-.6l4.2 11.5ZM134 174l-6.5-.2l-.1 2.4l5.7 .3l-.1 2.3l-5.7-.2l-.1 2.5l6.6 .3l-.1 2.4l-9.2-.4l.4-12.1l9.2 .4Zm-18-.9c-.3-.5-.7-1-1.1-1.4c-.3-.4-.8-.7-1.4-.9c-.5-.2-.9-.2-1.4-.2c-.5 0-.9 .2-1.3 .4c-.5 .2-.8 .5-1.1 .9c-.4 .4-.6 .8-.8 1.3c-.2 .5-.3 1-.2 1.5c0 .5 .1 .9 .2 1.4c.2 .4 .4 .8 .8 1.1c.3 .4 .7 .6 1.2 .8c.7 .2 1.3 .3 1.8 .2c.6-.1 1.1-.2 1.7-.5l1 2.2c-.4 .2-.8 .4-1.2 .5c-.4 .2-.8 .3-1.3 .3c-.4 0-.9 0-1.3 0c-.5-.1-1-.2-1.6-.4c-.8-.3-1.5-.8-2.2-1.3c-.6-.6-1-1.2-1.4-1.9c-.3-.8-.5-1.5-.5-2.3c0-.9 .1-1.7 .4-2.5c.3-.8 .7-1.6 1.2-2.2c.6-.6 1.2-1.1 1.9-1.4c.8-.4 1.5-.6 2.4-.6c.8 0 1.7 .1 2.6 .4c.5 .2 1 .4 1.4 .7c.4 .2 .7 .5 1 .7c.3 .3 .6 .6 .8 1c.3 .3 .5 .6 .6 1Zm-21-.3l-1.8-1.4l.3-9.7l-4.8 6l-2.1-1.6l7.6-9.5l1.9 1.5l-.2 9.4l4.6-5.8l2.1 1.6ZM80.3 158.9l-1.6-2.1l9.7-7.3l1.6 2.1Zm-2.9-10.6v0c-.6 .2-1.1 .4-1.6 .4c-.5 0-1-.2-1.5-.4c-.4-.2-.8-.5-1.2-1c-.4-.4-.7-.9-1-1.5c-.4-.8-.6-1.7-.7-2.7c-.1-.9 .1-1.8 .4-2.8l2.3 .7c-.2 .7-.2 1.3-.2 2c-.1 .6 .1 1.3 .4 1.9c.2 .5 .5 .8 .8 1c.3 .2 .6 .3 .9 .1h.1c.1-.1 .3-.2 .4-.3c0-.1 .1-.3 .1-.5c.1-.2 .1-.5 0-.8c0-.3 0-.8-.1-1.3c-.2-.6-.2-1.2-.3-1.7c0-.5 0-1 .1-1.4c.1-.5 .3-.9 .6-1.2c.3-.3 .7-.6 1.3-.9c.5-.2 1-.3 1.5-.3c.5 0 1 .1 1.4 .3c.5 .2 .9 .5 1.2 .9c.4 .4 .7 .9 1 1.4c.3 .9 .6 1.6 .6 2.4c.1 .8 0 1.6-.2 2.4l-2.4-.5c.1-.6 .2-1.2 .2-1.8c0-.5-.2-1-.4-1.5c-.2-.5-.4-.8-.7-1c-.3-.1-.6-.1-.9 0c-.2 .1-.3 .2-.4 .3c-.1 .2-.2 .3-.2 .6c0 .2 0 .5 0 .8c.1 .4 .1 .8 .2 1.4c.1 .6 .2 1.2 .2 1.7c0 .5 0 1-.2 1.4c-.1 .4-.3 .8-.6 1.1c-.2 .3-.6 .6-1.1 .8m-6.9-18l.8-2.5l-2.1-1.5v-.1h2.6l.8-2.4l.8 2.4H76v.1l-2.1 1.5l.9 2.5h-.1l-2.1-1.6l-2.1 1.6Zm-4.7-24l9.5 1.1c.8 .1 1.6 .3 2.2 .6c.6 .4 1.1 .8 1.5 1.2c.3 .5 .6 1.1 .8 1.8c.1 .7 .1 1.4 0 2.2c-.1 1.1-.4 2-.9 2.7c-.6 .7-1.1 1.3-1.8 1.7l-2-2.2c.5-.4 .9-.8 1.2-1.2c.3-.4 .5-.8 .6-1.3c.1-.6-.1-1.1-.4-1.5c-.4-.4-.9-.6-1.8-.7l-9.3-1.2Zm5.4-16.7c.5-1 1.1-1.8 1.8-2.5c.8-.7 1.6-1.2 2.5-1.5c.9-.3 1.9-.5 2.9-.4c1 0 1.9 .3 2.8 .7l.1 .1c.9 .4 1.7 1 2.4 1.8c.6 .7 1.1 1.5 1.4 2.4c.3 1 .5 1.9 .4 3c0 1-.3 2-.8 3c-.5 1-1.1 1.9-1.9 2.5c-.7 .7-1.6 1.2-2.5 1.5c-.9 .4-1.8 .5-2.8 .5c-1-.1-2-.3-2.9-.8c-1-.5-1.8-1.1-2.4-1.8c-.7-.7-1.1-1.6-1.5-2.5c-.3-.9-.4-1.9-.4-2.9c.1-1 .4-2 .9-3.1M88.9 67.1l2 2.1l-3.1 3.1l8.1 8.2l-2.2 2.3l-8.2-8.3l-3.1 3.1l-2.1-2.1Zm42.5 4.1c26.4 0 47.4 21.5 47.4 47.5c0 26.1-21.3 47.3-47.4 47.4c-26.3 0-47.6-21.6-47.5-47.8c.2-25.5 20.9-47.1 47.5-47.1M99 62.4c.4-.9 .9-1.7 1.6-2.5c.7-.7 1.5-1.4 2.5-1.8c1.1-.5 2.1-.8 3.1-.8c1 0 2 .1 2.9 .4c.9 .3 1.7 .8 2.4 1.5c.8 .6 1.4 1.4 1.8 2.4c.4 1 .7 1.9 .7 2.9c0 1-.1 1.9-.4 2.9c-.4 .9-.9 1.7-1.6 2.5c-.7 .7-1.5 1.3-2.5 1.8c-1 .5-2.1 .7-3.1 .8c-1 0-2-.1-2.9-.4c-.9-.3-1.7-.8-2.4-1.5c-.8-.7-1.3-1.5-1.8-2.4c-.4-1-.7-1.9-.7-2.9c0-1 .1-2 .4-2.9M130.6 59v0c.1-1 .4-2 .9-2.9c.4-.8 1-1.6 1.8-2.2c.7-.6 1.5-1.1 2.5-1.4c1-.3 2-.4 3.1-.3c.7 .1 1.3 .2 1.9 .4c.5 .2 1 .4 1.4 .6c.5 .2 .9 .5 1.2 .8c.4 .3 .7 .7 1 1l-2.2 2.2c-.6-.6-1.1-1-1.7-1.4c-.5-.3-1.2-.5-1.9-.6c-.6-.1-1.2 0-1.7 .2c-.5 .2-1 .4-1.4 .8c-.4 .4-.8 .8-1 1.4c-.3 .5-.5 1.1-.5 1.7c-.1 .6 0 1.2 .1 1.8c.2 .6 .4 1.1 .7 1.5c.4 .5 .8 .9 1.3 1.2c.5 .2 1 .4 1.6 .5c.9 .1 1.6 0 2.2-.3c.6-.2 1.2-.6 1.8-1l1.8 2.2c-.4 .4-.8 .7-1.2 1c-.5 .2-.9 .5-1.4 .7c-.5 .1-1.1 .3-1.6 .3c-.6 .1-1.3 .1-2 0c-1-.1-2-.4-2.9-.9c-.8-.4-1.6-1-2.2-1.8c-.6-.7-1-1.5-1.3-2.5c-.3-.9-.4-1.9-.3-3m19.9 4.2l3.5-7.5l2.9 1.4l-3.5 7.4c-.5 1.1-.6 2-.4 2.8c.3 .8 .8 1.4 1.7 1.8c.9 .4 1.7 .5 2.5 .2c.7-.3 1.3-.9 1.8-2l3.6-7.5l2.9 1.3L162 68.6c-.5 1-1 1.8-1.6 2.4c-.7 .6-1.3 1-2.1 1.3c-.7 .2-1.5 .3-2.3 .2c-.9-.1-1.7-.3-2.6-.7c-1.7-.9-2.9-2-3.5-3.5c-.5-1.4-.3-3.1 .6-5.1m28.3 8.7c1.3 1.3 2 2.7 2 4.1c0 1.2-.5 2.2-1.5 3.2c-.8 .9-1.7 1.4-2.6 1.5c-1 .1-1.9 0-2.8-.4l-1.1 6.2l-2.7-2.7l1.1-5.5l-1.8-1.7l-3.3 3.3l-2.3-2.3l10.3-10.3Zm9.7 12.2l3 5.9c.8 1.7 1 3.2 .5 4.5c-.4 1.1-1.2 1.9-2.4 2.6c-1.1 .5-2.1 .7-3 .5c-.9-.2-1.7-.6-2.5-1.3l-3.1 5.5l-1.6-3.4l2.8-4.8v-.1l-1.1-2.2l-4.2 2.1l-1.4-2.9Zm8.5 22.8l-5.4 4.1l6.2 2.8l.5 3.6l-9.4-4.4l-5.7 .7l-.4-3.2l5.7-.7l8-6.7Zm-64.8-60C91.9 46.4 59.6 79 59.6 118.6c0 39.6 32 71.4 71.1 71.8c39.5 .4 72.4-31.6 72.4-71.8c0-39.4-31.7-71.3-70.9-71.7Z" class="g0"/>
<path d="M175.7 153.4c-.3-.2-.6-.3-1-.3c-.4 .1-.8 .3-1.2 .7c-.3 .4-.5 .9-.5 1.3c0 .4 .2 .7 .5 .9v.1c.3 .2 .7 .3 1.1 .3c.4-.1 .8-.3 1.2-.7c.3-.4 .5-.8 .5-1.3c-.1-.4-.2-.7-.6-1Z" class="g0"/>
<path d="M175.4 77.7c.5 0 1-.2 1.5-.6c.5-.5 .7-1.1 .6-1.6c0-.6-.4-1.1-.9-1.7l-2.3-2.2l-2.9 2.9l2.3 2.3c.5 .6 1.1 .9 1.7 .9Z" class="g0"/>
<path d="M179.9 156.4c-.4-.3-.8-.4-1.3-.3c-.4 .2-.8 .5-1.2 .9c-.4 .5-.6 1-.7 1.4c0 .5 .1 .9 .5 1.2c.3 .3 .7 .4 1.2 .3c.4-.1 .9-.4 1.3-.9c.4-.5 .7-1 .7-1.5c0-.4-.2-.8-.5-1.1Z" class="g0"/>
<path d="M164.9 164.6c-.3-.5-.8-.7-1.3-.8c-.5-.1-1 .1-1.6 .4c-.5 .4-.8 .8-.9 1.3c-.1 .5 0 1 .3 1.4c.3 .5 .7 .8 1.2 .8c.5 .1 1-.1 1.5-.4c.6-.4 .9-.8 1-1.3c.2-.5 .1-1-.2-1.4Z" class="g0"/>
<path d="M102.3 66.7c.3 .6 .6 1.1 1.1 1.5c.4 .4 .9 .7 1.4 .9c.6 .3 1.1 .4 1.7 .3c.6 0 1.2-.1 1.8-.4c.5-.2 1-.6 1.4-1c.4-.5 .7-1 .8-1.5c.2-.5 .3-1.1 .2-1.7c0-.6-.1-1.2-.4-1.7V63c-.3-.5-.6-1-1.1-1.4c-.4-.4-.9-.7-1.4-1c-.5-.2-1.1-.3-1.7-.3c-.6 .1-1.2 .2-1.7 .5c-.6 .2-1.1 .6-1.5 1c-.4 .5-.7 1-.8 1.5c-.2 .5-.3 1.1-.2 1.7c0 .6 .2 1.1 .4 1.7Z" class="g0"/>

</g>
</svg>
