<svg width="60" height="60" viewBox="0 0 60 60" fill="none" xmlns="http://www.w3.org/2000/svg">
<path d="M14.2031 52.8737C11.4736 52.8737 9.16523 51.93 7.27815 50.0425C5.39065 48.1554 4.4469 45.8496 4.4469 43.125C4.4469 40.4004 5.39065 38.0921 7.27815 36.2C9.16523 34.3075 11.4736 33.3612 14.2031 33.3612C16.9327 33.3612 19.2411 34.3075 21.1281 36.2C23.0156 38.0921 23.9594 40.4004 23.9594 43.125C23.9594 45.8496 23.0156 48.1554 21.1281 50.0425C19.2411 51.93 16.9327 52.8737 14.2031 52.8737ZM45.8594 52.8737C43.1298 52.8737 40.824 51.93 38.9419 50.0425C37.0594 48.1554 36.1182 45.8496 36.1182 43.125C36.1182 40.4004 37.0594 38.0921 38.9419 36.2C40.824 34.3075 43.1298 33.3612 45.8594 33.3612C48.589 33.3612 50.8973 34.3075 52.7844 36.2C54.6719 38.0921 55.6156 40.4004 55.6156 43.125C55.6156 45.8496 54.6719 48.1554 52.7844 50.0425C50.8973 51.93 48.589 52.8737 45.8594 52.8737ZM14.2019 48.6156C15.7094 48.6156 17.0004 48.0787 18.075 47.005C19.1492 45.9316 19.6863 44.6412 19.6863 43.1337C19.6863 41.6262 19.1509 40.3327 18.08 39.2531C17.0092 38.1739 15.7221 37.6343 14.2188 37.6343C12.7109 37.6343 11.4175 38.1712 10.3388 39.245C9.25961 40.3183 8.72002 41.6087 8.72002 43.1162C8.72002 44.6237 9.2569 45.9173 10.3306 46.9968C11.404 48.076 12.6944 48.6156 14.2019 48.6156ZM45.8438 48.6156C47.3517 48.6156 48.645 48.0787 49.7238 47.005C50.8029 45.9316 51.3425 44.6412 51.3425 43.1337C51.3425 41.6262 50.8056 40.3327 49.7319 39.2531C48.6586 38.1739 47.3681 37.6343 45.8606 37.6343C44.3531 37.6343 43.0621 38.1712 41.9875 39.245C40.9134 40.3183 40.3763 41.6087 40.3763 43.1162C40.3763 44.6237 40.9117 45.9173 41.9825 46.9968C43.0534 48.076 44.3404 48.6156 45.8438 48.6156ZM30.0625 26.2175C27.3379 26.2175 25.0321 25.2737 23.145 23.3862C21.2575 21.4991 20.3138 19.1908 20.3138 16.4612C20.3138 13.7316 21.2575 11.4258 23.145 9.54372C25.0321 7.66122 27.3379 6.71997 30.0625 6.71997C32.7871 6.71997 35.0954 7.66122 36.9875 9.54372C38.88 11.4258 39.8263 13.7316 39.8263 16.4612C39.8263 19.1908 38.88 21.4991 36.9875 23.3862C35.0954 25.2737 32.7871 26.2175 30.0625 26.2175ZM30.0538 21.9593C31.5613 21.9593 32.8548 21.4225 33.9344 20.3487C35.0136 19.2754 35.5531 17.985 35.5531 16.4775C35.5531 14.97 35.0163 13.6764 33.9425 12.5968C32.8692 11.5177 31.5788 10.9781 30.0713 10.9781C28.5638 10.9781 27.2702 11.5168 26.1906 12.5943C25.1115 13.6718 24.5719 14.9623 24.5719 16.4656C24.5719 17.9735 25.1088 19.266 26.1825 20.3431C27.2559 21.4206 28.5463 21.9593 30.0538 21.9593Z" fill="#C76A15"/>
</svg>
