<svg width="60" height="60" viewBox="0 0 60 60" fill="none" xmlns="http://www.w3.org/2000/svg">
<path d="M6.18059 44.4894C5.75601 44.0644 5.54122 43.5567 5.53622 42.9662C5.53122 42.3754 5.74601 41.8627 6.18059 41.4281L20.3262 27.375C21.1312 26.5571 22.1225 26.1481 23.3 26.1481C24.4779 26.1481 25.4758 26.5571 26.2937 27.375L33.7475 34.8137L48.2418 20.2894H42.5681C41.9668 20.2894 41.4616 20.0838 41.0525 19.6725C40.6433 19.2613 40.4387 18.7535 40.4387 18.1494C40.4387 17.5452 40.6433 17.0413 41.0525 16.6375C41.4616 16.2333 41.9668 16.0312 42.5681 16.0312H53.2443C53.8456 16.0312 54.3533 16.2358 54.7675 16.645C55.1816 17.0542 55.3887 17.5594 55.3887 18.1606V28.8369C55.3887 29.4069 55.1914 29.9042 54.7968 30.3288C54.4023 30.7538 53.9104 30.9662 53.3212 30.9662C52.7421 30.9662 52.24 30.7538 51.815 30.3288C51.3904 29.9042 51.1781 29.4069 51.1781 28.8369V23.3981L36.6687 37.845C35.8533 38.6629 34.8568 39.0719 33.6793 39.0719C32.5018 39.0719 31.5091 38.6629 30.7012 37.845L23.2475 30.4688L9.22684 44.4894C8.80184 44.914 8.29413 45.1263 7.70372 45.1263C7.1133 45.1263 6.60559 44.914 6.18059 44.4894Z" fill="#C76A15"/>
</svg>
