<svg width="60" height="60" viewBox="0 0 60 60" fill="none" xmlns="http://www.w3.org/2000/svg">
<path d="M11.2768 53.0087C10.1272 53.0087 9.13011 52.5864 8.28552 51.7418C7.44094 50.8976 7.01865 49.9006 7.01865 48.7506V27.6824C5.8324 26.6229 5.06656 25.3437 4.72115 23.8449C4.37615 22.3462 4.43281 20.8633 4.89115 19.3962L7.57865 10.9587C7.94198 9.75369 8.57011 8.8114 9.46302 8.13181C10.3564 7.45181 11.3895 7.11182 12.5624 7.11182H47.1249C48.3691 7.11182 49.4641 7.46223 50.4099 8.16306C51.3557 8.86348 52.0053 9.79536 52.3586 10.9587L55.1086 19.3962C55.567 20.8545 55.6082 22.3276 55.2324 23.8156C54.8566 25.3039 54.0901 26.5731 52.933 27.6231V48.7506C52.933 49.9006 52.5095 50.8976 51.6624 51.7418C50.8149 52.5864 49.8143 53.0087 48.6605 53.0087H11.2768ZM35.6249 25.4912C36.7882 25.4912 37.7753 25.1126 38.5861 24.3556C39.3974 23.5989 39.7197 22.6731 39.553 21.5781L38.0055 11.3849H32.0093V21.5631C32.0093 22.6185 32.3503 23.537 33.0324 24.3187C33.7149 25.1004 34.5791 25.4912 35.6249 25.4912ZM23.9305 25.4912C25.0526 25.4912 26.0097 25.1108 26.8018 24.3499C27.5943 23.5891 27.9905 22.6601 27.9905 21.5631V11.3849H21.9943L20.4468 21.5781C20.2901 22.6214 20.5668 23.5345 21.2768 24.3174C21.9872 25.0999 22.8718 25.4912 23.9305 25.4912ZM12.5661 25.4912C13.5336 25.4912 14.3695 25.1549 15.0736 24.4824C15.7782 23.8099 16.188 22.9935 16.303 22.0331L17.913 11.3849H11.9168L9.07177 20.4056C8.66511 21.6793 8.82177 22.8454 9.54177 23.9037C10.2622 24.962 11.2703 25.4912 12.5661 25.4912ZM47.3749 25.4912C48.6682 25.4912 49.6855 24.9718 50.4268 23.9331C51.1676 22.8947 51.3347 21.7189 50.928 20.4056L48.083 11.3849H42.1018L43.6968 22.0331C43.8118 22.9935 44.2209 23.8099 44.9243 24.4824C45.6276 25.1549 46.4445 25.4912 47.3749 25.4912ZM11.2768 48.7506H48.6605V29.7018C48.7318 29.7335 48.6137 29.7493 48.3062 29.7493H47.373C46.3826 29.7493 45.4137 29.5406 44.4661 29.1231C43.5187 28.7051 42.5716 28.0529 41.6249 27.1662C40.9482 27.9695 40.1089 28.601 39.1068 29.0606C38.1043 29.5197 37.0076 29.7493 35.8168 29.7493C34.5839 29.7493 33.517 29.5797 32.6161 29.2406C31.7153 28.9014 30.8432 28.3349 29.9999 27.5412C29.3578 28.2608 28.5593 28.8087 27.6043 29.1849C26.6497 29.5612 25.5734 29.7493 24.3755 29.7493C23.1034 29.7493 21.9668 29.5299 20.9655 29.0912C19.9639 28.6524 19.1003 28.0108 18.3749 27.1662C17.3449 28.0212 16.3407 28.6656 15.3624 29.0993C14.3845 29.5326 13.4511 29.7493 12.5624 29.7493H11.7636C11.5128 29.7493 11.3505 29.7335 11.2768 29.7018V48.7506Z" fill="#C76A15"/>
</svg>
