<svg width="722" height="160" viewBox="0 0 722 160" fill="none" xmlns="http://www.w3.org/2000/svg">
<path fill-rule="evenodd" clip-rule="evenodd" d="M196.695 125.4C200.695 127.5 204.195 129.8 207.395 131.5C210.395 133.2 215.195 135.1 217.995 135.4C226.295 136.6 229.595 129.8 235.295 134.3C235.795 133.8 236.295 133.4 236.995 133.2H237.095H237.195C239.195 132.8 241.095 132.4 243.695 132.7C247.395 131.2 247.995 128 249.795 125.4C255.295 117.4 265.395 117 273.295 110.9C281.495 111.6 285.495 108.6 289.495 106.4C282.095 90 256.895 98.3 241.995 101.9C239.995 92.8 235.395 86.1 232.495 77.9C234.995 78.7 238.695 78.4 240.295 80.1C242.895 76.9 247.595 80.2 251.495 79C256.595 77.4 257.395 72 257.095 67.3C259.595 63.8 263.095 59.7 265.495 57.8C269.795 59.7 276.095 60.3 278.295 56.1C277.195 44.6 266.195 39 254.895 42.7C252.495 42.6 252.195 40.5 249.795 40.5C242.495 46.1 231.295 42.9 226.895 36C230.595 33.4 231.395 27.8 233.595 23.7C231.795 20.3 227.395 13.3 224.695 9.7C221.695 5.8 219.795 4.59999 215.695 7.49999C214.995 10.1 216.095 12.2 215.695 15.9C213.095 15.7 215.295 16.8 213.495 17.6C216.095 19.1 212.395 25.2 214.095 28.7C211.595 35 208.595 40.8 208.995 50C214.195 55 215.395 62.4 218.495 70.1C220.595 75 223.295 78.5 222.995 82.4C222.795 84.6 220.695 86.4 220.795 88.5C222.495 92 225.495 97.1 224.695 101.4C210.395 98.5 202.995 88.8 190.595 84C186.395 80.3 184.395 74.3 176.095 74.5C174.995 74.9 176.195 77.7 174.995 77.9C172.695 78.4 173.295 76.2 170.995 76.8C169.895 79.3 167.895 81.1 168.295 85.2C167.295 85.3 165.495 84.6 165.995 86.3C165.095 86.3 165.695 87.8 164.895 88C164.795 92.9 166.595 101.2 169.895 105.3C171.895 107.7 175.795 109.4 178.895 112C181.395 114.1 183.295 117.3 186.095 119.2C189.195 121.4 193.395 123.6 196.695 125.4Z" fill="#231F20"/>
<path fill-rule="evenodd" clip-rule="evenodd" d="M404.995 86.6C399.795 86.1 393.895 83.6 388.795 83.3C383.395 82.9 377.595 83.8 373.195 81.1V69.9C378.595 67.9 382.795 71.3 388.795 70.4C389.095 67.5 384.995 69 385.495 66C386.995 65.5 390.695 67.1 390.495 64.9C389.395 58 378.395 60.9 375.395 55.9C376.495 51.9 379.695 50.2 382.695 48.1C383.895 49.7 384.995 51.3 388.295 50.9C387.795 48.5 388.995 46.1 391.595 45.3C390.695 44.3 389.895 43.3 389.895 41.4C390.395 40.1 393.795 41.9 393.295 39.7C390.995 32.1 380.995 32.3 375.395 28C375.295 27.2 374.495 27 374.295 26.3C375.295 20.3 370.595 16.2 368.895 10.9C367.995 11.1 367.395 12.1 366.795 12.9C366.695 13 366.595 13.1 366.495 13.3C363.895 22.5 356.195 31.1 360.895 41.9C365.095 42.7 365.795 44.7 366.495 49.2H364.195C365.595 52.1 367.295 54.7 366.995 59.3C350.495 61.9 341.795 48.8 325.695 47.5C324.995 48.7 324.195 49.8 322.895 50.3C324.395 60.5 333.895 69 341.295 73.8C344.195 75.6 351.595 78.8 355.295 78.3C360.695 77.5 359.495 69.7 366.995 71C367.395 73.9 368.995 78.2 367.595 81.1C360.495 79.6 352.095 80.8 345.195 79.4C339.695 78.2 334.295 74.5 326.795 75.5C328.395 78 325.195 78 325.095 80.5C326.595 86.5 331.995 88.5 335.195 92.8C338.595 94.3 342.195 94 346.395 94.5C352.395 95.2 357.995 98.5 364.195 98.9C368.295 99.2 371.495 98 375.395 99.5C375.595 101.7 374.395 102.6 374.895 105.1C368.795 108.7 356.795 109.3 348.595 108.4C342.695 107.8 340.395 103.4 335.795 101.2C330.795 98.8 324.795 97.3 320.095 96.7C319.295 97.4 319.295 99.3 320.095 100.1C318.595 99.9 317.695 100.3 317.895 101.7C318.395 104 319.995 105.2 320.095 107.9C332.895 119.8 353.395 117.9 373.195 119.6C374.395 123.9 373.695 130.3 372.095 133.6C368.995 134.4 366.495 135.6 363.695 136.9C360.995 138.2 357.795 139.2 355.895 141.4C357.895 143.5 360.395 143.4 359.795 147C361.495 147.6 362.195 146.6 364.195 147.5C366.095 148.5 362.095 149.7 364.795 149.8C372.495 150.5 373.195 158.2 380.395 159.3C382.995 158.5 385.295 155.7 388.795 157.6C391.195 156.3 393.095 154.5 394.995 152.6C398.195 134.1 388.295 125.8 383.795 114C386.395 114.4 385.295 111.1 387.695 111.2C391.695 110.5 392.595 112.9 395.495 111.8C395.395 108.6 390.695 110 390.495 106.8C392.095 104.5 394.395 106.1 396.695 105.1C395.995 102.5 393.095 102.3 390.495 101.7C387.795 103 385.095 107.1 380.995 105.1C382.795 101.5 383.795 99.7 383.195 96.1C388.995 94.7 397.395 102.1 405.595 104C408.395 104.6 412.495 105.2 414.495 105.1C420.995 104.6 419.695 97.6 420.695 93.3C416.795 92.3 413.995 88 409.495 86.6C408.395 86.3 406.395 86.8 404.995 86.6Z" fill="#231F20"/>
<path fill-rule="evenodd" clip-rule="evenodd" d="M309.995 0C313.795 0.9 322.995 7.00001 323.495 11.2C323.995 15.6 319.795 16.7 318.995 21.3C323.595 26.9 333.695 22.8 340.795 24.1C344.095 24.7 350.095 28.8 350.295 33C347.495 34.8 347.395 36.3 345.795 38.6C347.495 40.3 349.095 42 349.195 45.3C347.095 44.9 346.595 43 344.095 43.1C342.195 46 347.095 46.2 346.395 49.8C342.895 50.8 340.395 47 336.895 46.4C336.095 44 335.595 41.3 334.595 39.2C327.995 40.2 321.395 36.8 314.495 36.4C312.995 33.8 311.695 31 309.495 29.1C308.795 20.7 308.895 11.4 306.095 5.10004C309.395 5.40004 308.895 1.9 309.995 0Z" fill="#231F20"/>
<path fill-rule="evenodd" clip-rule="evenodd" d="M322.895 144.8C317.695 143.2 313.695 140.6 309.495 138C307.495 137.2 309.195 139.9 307.795 139.7C304.295 140 303.595 137.6 300.595 137.5C298.395 134.2 294.195 130.1 290.495 130.2C289.695 126 288.195 123.1 288.795 119.6C290.095 112.5 300.395 109.9 305.595 106.8C314.995 111.8 320.495 120.9 329.595 126.3C331.295 130 332.995 134.8 331.795 139.7C329.395 141.9 325.995 143.2 322.895 144.8Z" fill="#231F20"/>
<path fill-rule="evenodd" clip-rule="evenodd" d="M503.395 30.7C507.595 38.7 503.895 50.6 499.495 55.3C505.295 57.3 508.995 61.4 515.195 63.1C517.495 68.2 524.295 71.4 525.795 77.1C526.495 79.8 525.095 83 525.195 86.6C522.995 87.5 520.695 88.4 517.395 88.2C514.195 93.6 512.195 99.7 509.595 106.7C508.795 108.6 507.395 111.1 507.295 112.8C506.995 118.7 511.795 126.7 506.195 132.9C499.595 136.4 494.495 131.1 493.395 125.7C488.595 122.8 485.295 118.4 478.295 117.8C477.495 115.1 474.595 114.4 472.695 112.8C472.395 111.1 475.295 112.4 475.495 111.1C475.195 108.2 475.695 106.1 476.595 104.4C483.895 102.1 492.695 104.2 500.595 104.4C504.095 97.7 505.595 89.8 506.795 82.1C505.195 78.5 500.895 77.6 497.795 75.4C492.795 75.7 491.995 81.1 488.295 83.8C483.495 87.3 476.095 86.1 469.295 88.8C464.995 92.3 464.895 98.6 461.495 102.8C459.195 105.5 454.995 106.6 454.295 110.6C449.795 111.9 447.895 115.8 442.495 116.2C437.895 102.8 447.095 94.6 451.995 87.1C451.595 84.6 448.895 84.2 446.995 83.2C444.795 80.4 441.295 77.4 438.095 74.8C434.095 71.6 429.795 67.8 425.795 63.1C423.295 60.1 418.395 55.6 417.895 52.5C417.495 49.5 419.595 46.4 419.595 43C423.495 42.3 423.195 39.1 426.295 38.5C434.595 36.9 440.395 48 446.995 49.7C453.495 49.9 459.795 48.6 467.095 49.1C470.895 49.4 476.595 52.2 479.995 51.4C481.295 51 488.695 42.9 490.595 41.3C496.095 36.8 499.995 33.8 503.395 30.7Z" fill="#231F20"/>
<path fill-rule="evenodd" clip-rule="evenodd" d="M649.795 98.8C648.395 98.1 646.095 97.9 644.895 97.2C643.095 96.2 641.995 94.5 640.095 93.4C637.595 92 634.695 91.4 633.395 90.4C628.495 86.7 628.295 79.5 627.795 74.5C627.995 74.1 628.095 73.8 628.295 73.4C628.495 73 628.695 72.6 628.795 72.2C628.795 72.1333 628.795 72.1 628.795 72.1C628.895 71.8 628.995 71.5 629.095 71.3C629.095 71.2333 629.095 71.2 629.095 71.2C629.395 70.8 629.795 70.6 630.295 70.5C630.795 70.5 631.595 70.6 632.795 70.9C634.595 70.9 633.695 68.9 636.095 69.4C644.395 67.8 647.995 73 652.695 74.4C657.295 75.8 673.795 77.6 676.895 77.3C682.795 76.6 687.195 72.6 693.595 71.9C702.995 70.9 709.595 72.8 721.095 73.7C718.295 78.1 706.895 78.4 702.995 82C702.795 82.2 703.095 83.1 702.195 84.1C700.895 85.7 699.295 85.4 701.995 86.7C699.695 87.4 698.395 89 696.795 90.3C698.495 92.5 694.995 92.6 694.595 94.4C693.795 97.6 693.495 100.5 690.295 102.4C686.395 104.7 679.395 104 672.595 104.6C669.695 104.9 668.495 105.6 666.895 105.6C659.095 105.2 653.695 100.8 649.795 98.8Z" fill="#231F20"/>
<path fill-rule="evenodd" clip-rule="evenodd" d="M610.795 95C594.095 90.6 577.995 96.1 562.895 96.1C563.095 94.1 562.995 93.6 563.695 90.5C561.895 76.7 558.195 60.9 552.195 50.6C549.095 45.3 544.595 37.1 537.095 42.6C537.395 47.3 534.695 51.7 534.695 57.5C534.595 62.6 537.895 68 537.595 74.2C537.395 78 535.995 82.1 535.895 85.9C535.795 89.3 537.095 92.4 537.395 96C537.795 100.4 536.295 105 536.495 108.4C536.895 113.4 540.795 114.2 543.195 116.8C545.195 118.9 546.495 121.9 548.895 123.8C551.295 125.8 553.895 126.4 556.195 128.2H556.295C556.395 128.4 556.595 128.5 556.795 128.7C556.995 128.8 557.095 129 557.195 129C557.395 129.1 557.595 129.3 557.795 129.4C558.195 129.4 558.595 129.3 558.895 129.3C563.995 126.7 567.695 121.4 572.695 118.4C575.095 117 577.795 115.7 580.395 114.4C583.095 113 585.895 113 588.695 111.7C590.295 111 591.495 109.5 593.195 108.8C593.995 108.4 594.795 108.5 595.795 108.2C598.595 107.4 600.895 105.8 603.195 105.3C603.895 105.2 604.995 106 605.895 105.9C609.995 105.7 613.795 102.7 618.495 105.4C619.095 104.1 620.495 104.6 621.695 104.4C621.695 103 623.895 101.8 623.695 102C625.095 100.8 624.995 100.7 626.595 99.8C621.095 99.3 615.795 96.4 610.795 95Z" fill="#231F20"/>
<path fill-rule="evenodd" clip-rule="evenodd" d="M645.895 134.3C645.895 134.7 645.395 134.6 645.295 134.9C644.795 138.3 641.895 144 644.095 146.3C647.695 144.8 647.795 137.7 646.795 134.3H645.895ZM638.695 133.1C638.295 136.5 638.995 140.2 638.095 143.6C641.995 142 640.395 137.8 641.095 133.7C640.495 133.4 639.895 132.9 638.695 133.1ZM655.195 125V125.6C655.695 130.5 656.295 134.7 656.695 139.1C656.895 140.4 657.095 142 657.295 143.3C657.595 144.5 656.995 146.6 658.795 146.6C660.395 146.4 660.195 144.3 660.295 143C660.995 138.1 660.895 131.4 660.895 126.5C659.495 125.7 656.795 124.7 655.195 125ZM662.395 150.5C660.295 151.5 658.895 150.8 657.295 149.9C652.995 150.1 648.195 150.4 643.795 149.6C643.195 149.5 642.995 148.9 642.295 148.7C641.095 148.4 639.195 149 637.795 148.7C636.395 148.5 635.495 148.3 634.495 147.2C634.595 140.6 635.095 133.6 635.095 127.1C635.095 125.5 634.295 124.1 635.095 122.6C636.495 122.6 637.395 121.6 638.695 122.3C639.495 124.1 638.695 126.3 638.695 128.3C639.695 129.6 641.595 129.4 642.895 129.5C644.395 129.6 646.395 129.2 647.395 129.5C652.895 131.2 650.895 142.7 648.895 146.6C649.395 147.4 651.695 146.4 652.195 147.2C654.495 141.1 653.595 133.2 651.595 127.4C650.195 126.6 650.595 124 648.295 124.1C646.595 125.3 646.395 129.8 643.195 128.9C643.195 128.9 643.095 127.9 642.895 128.6C641.895 127.7 641.995 125.9 642.595 124.7C642.395 123.4 640.095 124.3 639.595 123.2C639.095 122.7 639.395 121.5 639.295 120.5C643.795 119.1 650.095 122.1 655.795 121.4C656.995 121.3 657.695 120.7 658.495 120.8C659.995 121 661.095 122.5 662.395 122.3C665.295 126 663.595 132.9 663.295 139.4C663.095 143.7 663.895 147.9 662.395 150.5Z" fill="#EE1D23"/>
<path d="M123.595 98.9001C120.595 105.4 114.995 112.4 109.695 117.1C100.395 125.3 87.9949 131.8 71.6949 131.8C59.1949 131.8 47.9949 127.5 39.4949 121.8C27.4949 113.6 16.3949 98.7001 14.7949 79.9001C13.2949 61.6001 20.6949 46.7 28.3949 37.7C32.3949 33.1 37.6949 28.5001 43.7949 25.1001C50.0949 21.7001 56.7949 19.3 65.6949 18.3C92.3949 15.6 112.295 30.3 121.495 47C129.895 62.2 131.195 82.3001 123.595 98.9001ZM65.6949 4.00003C60.2949 4.40003 55.7949 5.40005 50.5949 6.90005C36.8949 10.9001 26.1949 18.5 18.3949 27.3C8.19491 38.9 -1.50509 56.5 0.19491 79.2C1.69491 100.7 11.2949 116.2 24.0949 127.9C36.9949 139.6 56.2949 147.5 78.8949 145.8C98.0949 144.3 114.395 134 124.295 123.2C135.095 111.5 143.495 94.4 143.295 74.2C143.095 53.7 133.595 36.7001 123.595 25.9001C111.395 12.6001 91.5949 2.10003 65.6949 4.00003Z" fill="#231F20"/>
<path d="M70.9947 95.3C63.5947 88.7 57.1947 81.2 49.8947 74.5C56.8947 66.8 65.0947 60.1 72.4947 52.7C79.6947 59.6 86.6947 66.6 93.5947 73.8C86.4947 81.2 78.2947 89.3 70.9947 95.3ZM124.295 70.2C120.795 65.3 116.095 61.5 112.195 57C109.995 57.8 108.995 59.8 107.195 60.9C100.195 54 92.7947 47.4 86.3947 39.8C87.4947 38.4 88.8947 37.3 90.2947 36.2C88.8947 33.5 86.6947 31.2 84.5947 29.1C82.3947 26.9 80.2947 24.6 77.7947 22.6C76.1947 24 74.6947 25.4 73.1947 26.9C70.9947 25.5 69.8947 23 67.3947 21.9C65.2947 24.2 63.1947 26.5 60.9947 28.7C58.9947 30.7 56.2947 32.3 55.2947 35.2C56.4947 37 58.7947 37.6 59.5947 39.8C51.7947 46.7 44.6947 54.3 36.6947 60.9C34.7947 59.6 33.4947 57.6 31.6947 56.3C27.4947 60.8 22.4947 64.6 18.7947 69.5C20.3947 70.6 21.6947 72.1 23.0947 73.5C21.7947 75.6 20.1947 77.2 18.0947 78.5C21.5947 83.5 26.5947 87.1 30.1947 92.1C32.7947 90.8 33.9947 88.3 36.6947 87.1C42.5947 93.3 49.4947 100 55.2947 106C56.0947 106.8 57.7947 107.5 57.3947 108.9C55.9947 110.8 53.3947 111.5 52.7947 114.3C56.9947 118.4 60.7947 122.9 65.2947 126.8C67.0947 126.3 68.7947 121.7 70.9947 121.8C72.9947 121.9 75.2947 127.6 77.0947 127.5C77.0947 127.5 79.6947 124.9 80.2947 124.3C83.7947 120.8 86.9947 117.6 89.5947 114.3C87.8947 112.5 85.9947 110.8 84.2947 108.9C91.3947 101.3 99.2947 94.4 106.795 87.1C109.195 88.7 110.495 91.4 113.295 92.8C117.395 88.5 122.195 84.8 125.795 79.9C124.295 77.7 121.795 76.5 120.395 74.2C121.495 72.6 122.995 71.5 124.295 70.2Z" fill="#231F20"/>
</svg>
